<svg width="42" height="40" viewBox="0 0 42 40" fill="none" xmlns="http://www.w3.org/2000/svg">
<g clip-path="url(#clip0_2876_827)">
<path d="M36.731 23.3654C36.731 22.9829 36.5808 22.6161 36.3133 22.3456C36.0459 22.0751 35.6832 21.9231 35.305 21.9231H29.6007C29.2225 21.9231 28.8598 22.0751 28.5924 22.3456C28.3249 22.6161 28.1747 22.9829 28.1747 23.3654V36.3462H25.3226V5.09621C25.3226 3.69621 25.3188 2.78852 25.2313 2.12313C25.1476 1.49813 25.0126 1.30198 24.9042 1.19236C24.7959 1.08275 24.6019 0.94621 23.984 0.861595C23.3242 0.773133 22.4286 0.769287 21.0444 0.769287C19.6602 0.769287 18.7627 0.773133 18.1048 0.861595C17.4869 0.94621 17.2929 1.08275 17.1845 1.19236C17.0761 1.30198 16.9411 1.49813 16.8575 2.12313C16.77 2.79044 16.7662 3.69621 16.7662 5.09621V36.3462H13.9141V13.7501C13.9141 13.3675 13.7639 13.0007 13.4964 12.7302C13.229 12.4597 12.8663 12.3077 12.4881 12.3077H6.78382C6.40561 12.3077 6.04289 12.4597 5.77545 12.7302C5.50801 13.0007 5.35777 13.3675 5.35777 13.7501V36.3462H2.0303C1.65209 36.3462 1.28937 36.4982 1.02193 36.7687C0.754493 37.0391 0.604248 37.406 0.604248 37.7885C0.604248 38.171 0.754493 38.5379 1.02193 38.8084C1.28937 39.0789 1.65209 39.2308 2.0303 39.2308H40.0585C40.4367 39.2308 40.7994 39.0789 41.0668 38.8084C41.3343 38.5379 41.4845 38.171 41.4845 37.7885C41.4845 37.406 41.3343 37.0391 41.0668 36.7687C40.7994 36.4982 40.4367 36.3462 40.0585 36.3462H36.731V23.3654Z" fill="white" fill-opacity="0.5" style="fill:white;fill-opacity:0.5;"/>
</g>
<defs>
<clipPath id="clip0_2876_827">
<rect width="42" height="40" fill="white" style="fill:white;fill-opacity:1;"/>
</clipPath>
</defs>
</svg>
