<svg width="62" height="60" viewBox="0 0 62 60" fill="none" xmlns="http://www.w3.org/2000/svg">
<g clip-path="url(#clip0_2876_831)" filter="url(#filter0_d_2876_831)">
<g filter="url(#filter1_d_2876_831)">
<path d="M46.731 33.3654C46.731 32.9829 46.5808 32.6161 46.3133 32.3456C46.0459 32.0751 45.6832 31.9231 45.305 31.9231H39.6007C39.2225 31.9231 38.8598 32.0751 38.5924 32.3456C38.3249 32.6161 38.1747 32.9829 38.1747 33.3654V46.3462H35.3226V15.0962C35.3226 13.6962 35.3188 12.7885 35.2313 12.1231C35.1476 11.4981 35.0126 11.302 34.9042 11.1924C34.7959 11.0827 34.6019 10.9462 33.984 10.8616C33.3242 10.7731 32.4286 10.7693 31.0444 10.7693C29.6602 10.7693 28.7627 10.7731 28.1048 10.8616C27.4869 10.9462 27.2929 11.0827 27.1845 11.1924C27.0761 11.302 26.9411 11.4981 26.8575 12.1231C26.77 12.7904 26.7662 13.6962 26.7662 15.0962V46.3462H23.9141V23.7501C23.9141 23.3675 23.7639 23.0007 23.4964 22.7302C23.229 22.4597 22.8663 22.3077 22.4881 22.3077H16.7838C16.4056 22.3077 16.0429 22.4597 15.7755 22.7302C15.508 23.0007 15.3578 23.3675 15.3578 23.7501V46.3462H12.0303C11.6521 46.3462 11.2894 46.4982 11.0219 46.7687C10.7545 47.0391 10.6042 47.406 10.6042 47.7885C10.6042 48.171 10.7545 48.5379 11.0219 48.8084C11.2894 49.0789 11.6521 49.2308 12.0303 49.2308H50.0585C50.4367 49.2308 50.7994 49.0789 51.0668 48.8084C51.3343 48.5379 51.4845 48.171 51.4845 47.7885C51.4845 47.406 51.3343 47.0391 51.0668 46.7687C50.7994 46.4982 50.4367 46.3462 50.0585 46.3462H46.731V33.3654Z" fill="white" style="fill:white;fill-opacity:1;"/>
</g>
</g>
<defs>
<filter id="filter0_d_2876_831" x="0" y="0" width="62" height="60" filterUnits="userSpaceOnUse" color-interpolation-filters="sRGB">
<feFlood flood-opacity="0" result="BackgroundImageFix"/>
<feColorMatrix in="SourceAlpha" type="matrix" values="0 0 0 0 0 0 0 0 0 0 0 0 0 0 0 0 0 0 127 0" result="hardAlpha"/>
<feOffset/>
<feGaussianBlur stdDeviation="5"/>
<feComposite in2="hardAlpha" operator="out"/>
<feColorMatrix type="matrix" values="0 0 0 0 1 0 0 0 0 1 0 0 0 0 1 0 0 0 0.25 0"/>
<feBlend mode="normal" in2="BackgroundImageFix" result="effect1_dropShadow_2876_831"/>
<feBlend mode="normal" in="SourceGraphic" in2="effect1_dropShadow_2876_831" result="shape"/>
</filter>
<filter id="filter1_d_2876_831" x="0.604248" y="0.769287" width="60.8804" height="58.4614" filterUnits="userSpaceOnUse" color-interpolation-filters="sRGB">
<feFlood flood-opacity="0" result="BackgroundImageFix"/>
<feColorMatrix in="SourceAlpha" type="matrix" values="0 0 0 0 0 0 0 0 0 0 0 0 0 0 0 0 0 0 127 0" result="hardAlpha"/>
<feOffset/>
<feGaussianBlur stdDeviation="5"/>
<feComposite in2="hardAlpha" operator="out"/>
<feColorMatrix type="matrix" values="0 0 0 0 1 0 0 0 0 1 0 0 0 0 1 0 0 0 0.25 0"/>
<feBlend mode="normal" in2="BackgroundImageFix" result="effect1_dropShadow_2876_831"/>
<feBlend mode="normal" in="SourceGraphic" in2="effect1_dropShadow_2876_831" result="shape"/>
</filter>
<clipPath id="clip0_2876_831">
<rect width="42" height="40" fill="white" style="fill:white;fill-opacity:1;" transform="translate(10 10)"/>
</clipPath>
</defs>
</svg>
