<svg width="255" height="255" viewBox="0 0 255 255" fill="none" xmlns="http://www.w3.org/2000/svg">
<path d="M217.5 127.279C217.5 176.985 177.205 217.279 127.5 217.279C77.7941 217.279 37.4998 176.985 37.4998 127.279C37.4998 77.5737 77.7941 37.2793 127.5 37.2793C177.205 37.2793 217.5 77.5737 217.5 127.279ZM67.8829 127.279C67.8829 160.205 94.5743 186.896 127.5 186.896C160.425 186.896 187.117 160.205 187.117 127.279C187.117 94.3538 160.425 67.6625 127.5 67.6625C94.5743 67.6625 67.8829 94.3538 67.8829 127.279Z" fill="white" style="fill:white;fill-opacity:1;"/>
<path d="M108.138 199.539C105.967 207.643 97.5571 212.566 89.9329 209.064C79.7004 204.364 70.3987 197.765 62.5426 189.573C51.1653 177.709 43.2544 162.956 39.6682 146.915C36.082 130.873 36.9575 114.156 42.1997 98.5766C47.4419 82.9974 56.8507 69.1514 69.405 58.541C81.9592 47.9305 97.1796 40.9609 113.415 38.3883C129.65 35.8158 146.279 37.7385 161.499 43.948C176.718 50.1574 189.946 60.4164 199.748 73.6117C206.516 82.7232 211.472 92.9944 214.402 103.867C216.584 111.968 210.328 119.44 201.976 120.231C193.623 121.021 186.39 114.766 183.519 106.882C181.555 101.488 178.813 96.3805 175.358 91.7294C168.865 82.9887 160.103 76.193 150.021 72.0798C139.939 67.9666 128.924 66.693 118.17 68.3971C107.416 70.1012 97.3334 74.7179 89.0173 81.7464C80.7013 88.7749 74.4689 97.9466 70.9964 108.266C67.5239 118.586 66.9439 129.66 69.3194 140.286C71.695 150.912 76.9353 160.685 84.4717 168.543C88.482 172.725 93.061 176.28 98.0526 179.116C105.348 183.26 110.31 191.434 108.138 199.539Z" fill="#9DDEF8" style="fill:#9DDEF8;fill:color(display-p3 0.6157 0.8706 0.9725);fill-opacity:1;"/>
<path d="M52.7402 129.975C44.3556 130.277 37.1814 123.682 38.292 115.366C39.1799 108.717 40.8106 102.172 43.1639 95.856C47.2904 84.7809 53.558 74.6269 61.6087 65.9739C69.6594 57.321 79.3356 50.3384 90.0849 45.425C96.2149 42.623 102.625 40.5252 109.193 39.1607C117.408 37.4541 124.502 44.1347 124.805 52.5193C125.107 60.904 118.441 67.7603 110.403 70.1664C107.783 70.9508 105.214 71.9162 102.716 73.0582C95.5955 76.3129 89.1859 80.9382 83.853 86.67C78.5202 92.4018 74.3685 99.1279 71.635 106.464C70.6759 109.038 69.898 111.67 69.3043 114.34C67.4834 122.53 61.1248 129.672 52.7402 129.975Z" fill="#30B9F0" style="fill:#30B9F0;fill:color(display-p3 0.1893 0.7273 0.9424);fill-opacity:1;"/>
<path d="M83.3721 187.687C78.423 194.461 68.8036 196.019 62.9564 190.002C58.2813 185.191 54.1476 179.861 50.6408 174.105C44.4915 164.012 40.3905 152.806 38.5719 141.128C36.7532 129.45 37.2525 117.528 40.0414 106.043C41.6318 99.493 43.949 93.1585 46.9398 87.1538C50.6804 79.6437 60.3178 78.2023 67.0927 83.1514C73.8677 88.1006 75.1313 97.5794 72.0498 105.383C71.0453 107.927 70.2148 110.542 69.5666 113.212C67.7192 120.82 67.3885 128.717 68.5932 136.453C69.7979 144.189 72.5144 151.611 76.5878 158.297C78.017 160.643 79.6035 162.882 81.3341 165C86.6427 171.497 88.3212 180.912 83.3721 187.687Z" fill="#0D94CA" style="fill:#0D94CA;fill:color(display-p3 0.0502 0.5809 0.7924);fill-opacity:1;"/>
<path d="M127.5 202.088C127.5 210.478 120.651 217.41 112.38 216C105.767 214.873 99.2855 213.008 93.0585 210.428C82.1392 205.906 72.2177 199.276 63.8604 190.919C55.5031 182.562 48.8738 172.64 44.3508 161.721C41.7715 155.494 39.9061 149.012 38.7791 142.399C37.3696 134.128 44.3015 127.279 52.6916 127.279C61.0817 127.279 67.6934 134.188 69.8083 142.307C70.4977 144.954 71.37 147.556 72.4212 150.094C75.4173 157.327 79.8086 163.899 85.3445 169.435C90.8805 174.971 97.4526 179.362 104.686 182.358C107.224 183.409 109.825 184.282 112.472 184.971C120.591 187.086 127.5 193.698 127.5 202.088Z" fill="white" style="fill:white;fill-opacity:1;"/>
</svg>
