<svg width="60" height="61" viewBox="0 0 60 61" fill="none" xmlns="http://www.w3.org/2000/svg">
<circle cx="30" cy="30.5" r="30" fill="white" fill-opacity="0.5" style="fill:white;fill-opacity:0.5;"/>
<g clip-path="url(#clip0_2846_623)">
<path d="M25.3169 36.537C25.3169 36.537 24.7506 29.382 24.2023 29.0134C23.6539 28.6449 10.7551 28.4471 10.3326 28.7348C9.91012 29.0224 10.0539 46.7932 10.3326 46.8921C10.6112 46.991 11.7438 46.8921 11.7438 46.8921V45.4359L33.9371 45.4809V46.7033H35.5191V45.5258L46.6472 45.382V46.5505L48.427 46.5056V45.4269C48.427 45.4269 50.1618 45.2831 50.027 43.782C49.8921 42.2809 48.9034 41.7056 48.9034 41.7056L25.3169 36.537Z" fill="#F2EBEB" style="fill:#F2EBEB;fill:color(display-p3 0.9490 0.9216 0.9216);fill-opacity:1;"/>
<path d="M10.6202 28.9506C10.8989 29.0135 11.1686 29.1303 11.4113 29.3011C11.6539 29.4719 11.8427 29.7056 11.9506 29.9843C11.9955 30.1281 12.0225 30.2719 12.0315 30.4157L12.0495 30.8472L12.0854 31.7101C12.1304 32.8607 12.1663 34.0112 12.2113 35.1618C12.2382 36.3124 12.2742 37.4629 12.2921 38.6135L12.3191 40.3393C12.3191 40.9146 12.3281 41.4899 12.3281 42.0652C12.2921 41.4899 12.2652 40.9146 12.2292 40.3393L12.1573 38.6135C12.1124 37.4629 12.0764 36.3124 12.0315 35.1708C12.0045 34.0202 11.9686 32.8697 11.9506 31.7191L11.9326 30.8562L11.9236 30.4247C11.9236 30.2809 11.9056 30.1461 11.8607 30.0112C11.7708 29.7416 11.6 29.5079 11.3753 29.3371C11.1506 29.1663 10.8899 29.0315 10.6202 28.9506Z" fill="#000001" style="fill:#000001;fill:color(display-p3 0.0000 0.0000 0.0039);fill-opacity:1;"/>
<path d="M15.1236 37.7146C15.1236 37.7146 13.3438 36.0427 13.4876 35.6921C13.6315 35.3416 15.6809 34.6854 16.9034 34.5955C18.1258 34.5056 19.0337 35.7371 19.627 36.3213C20.2202 36.9056 20.4719 37.8674 20.4719 37.8674L15.1236 37.7146Z" fill="#000001" style="fill:#000001;fill:color(display-p3 0.0000 0.0000 0.0039);fill-opacity:1;"/>
<path d="M13.7483 35.6651C13.7034 35.4854 15.4112 36.2314 15.9146 36.6539C16.418 37.0764 19.1236 37.4 18.8719 37.7595C18.6202 38.1191 14.3416 38.0651 13.7483 35.6651Z" fill="#2167A6" style="fill:#2167A6;fill:color(display-p3 0.1303 0.4057 0.6516);fill-opacity:1;"/>
<path d="M14.2337 35.755C14.2517 35.7999 14.2607 35.8539 14.2607 35.9078C14.2607 35.9528 14.2517 35.9977 14.2427 36.0426C14.2337 36.0876 14.2157 36.1325 14.1888 36.1685C14.1618 36.2134 14.1258 36.2494 14.0809 36.2853C14.0629 36.2404 14.0539 36.1865 14.0539 36.1325C14.0539 36.0876 14.0629 36.0426 14.0719 35.9977C14.0809 35.9528 14.0989 35.9078 14.1258 35.8719C14.1528 35.8269 14.1888 35.791 14.2337 35.755Z" fill="#F2EBEB" style="fill:#F2EBEB;fill:color(display-p3 0.9490 0.9216 0.9216);fill-opacity:1;"/>
<path d="M14.9978 36.2405C15.0157 36.3124 15.0157 36.3933 15.0157 36.4652C15.0067 36.5371 14.9978 36.609 14.9798 36.6809C14.9618 36.7528 14.9348 36.8158 14.9079 36.8787C14.8809 36.9506 14.836 37.0135 14.791 37.0674C14.773 36.9955 14.773 36.9146 14.773 36.8427C14.782 36.7708 14.791 36.6989 14.809 36.627C14.827 36.5551 14.8539 36.4922 14.8809 36.4292C14.9079 36.3573 14.9438 36.2944 14.9978 36.2405Z" fill="#F2EBEB" style="fill:#F2EBEB;fill:color(display-p3 0.9490 0.9216 0.9216);fill-opacity:1;"/>
<path d="M15.6719 36.627C15.6899 36.6899 15.6899 36.7618 15.6899 36.8247C15.6809 36.8876 15.6719 36.9416 15.6539 37.0045C15.636 37.0674 15.609 37.1213 15.582 37.1753C15.5551 37.2382 15.5101 37.2921 15.4652 37.3371C15.4472 37.2741 15.4472 37.2022 15.4472 37.1393C15.4562 37.0764 15.4652 37.0225 15.4832 36.9595C15.5011 36.8966 15.5281 36.8427 15.5551 36.7887C15.582 36.7258 15.618 36.6719 15.6719 36.627Z" fill="#F2EBEB" style="fill:#F2EBEB;fill:color(display-p3 0.9490 0.9216 0.9216);fill-opacity:1;"/>
<path d="M18.1708 37.337C18.1888 37.391 18.1888 37.4449 18.1798 37.4988C18.1708 37.5977 18.1258 37.6876 18.0719 37.7685C18.0359 37.8134 18 37.8494 17.955 37.8764C17.9371 37.8224 17.9371 37.7685 17.9461 37.7146C17.955 37.6696 17.964 37.6157 17.982 37.5707C18 37.5258 18.027 37.4809 18.0539 37.4449C18.0899 37.4 18.1258 37.364 18.1708 37.337Z" fill="#F2EBEB" style="fill:#F2EBEB;fill:color(display-p3 0.9490 0.9216 0.9216);fill-opacity:1;"/>
<path d="M17.7753 37.3551C17.7843 37.409 17.7933 37.463 17.7843 37.5169C17.7753 37.6158 17.7303 37.7147 17.6764 37.7956C17.6405 37.8405 17.6045 37.8764 17.5596 37.9034C17.5506 37.8495 17.5416 37.7956 17.5506 37.7416C17.5596 37.6877 17.5685 37.6427 17.5865 37.5978C17.6045 37.5529 17.6315 37.5079 17.6584 37.463C17.6944 37.418 17.7303 37.3821 17.7753 37.3551Z" fill="#F2EBEB" style="fill:#F2EBEB;fill:color(display-p3 0.9490 0.9216 0.9216);fill-opacity:1;"/>
<path d="M17.1551 37.1034C17.164 37.1753 17.164 37.2472 17.1461 37.3101C17.1371 37.3731 17.1191 37.436 17.0921 37.4989C17.0652 37.5618 17.0382 37.6247 17.0022 37.6787C16.9663 37.7416 16.9213 37.7865 16.8674 37.8315C16.8584 37.7596 16.8584 37.6877 16.8764 37.6247C16.9034 37.4989 16.9483 37.3731 17.0202 37.2562C17.0562 37.2023 17.1011 37.1483 17.1551 37.1034Z" fill="#F2EBEB" style="fill:#F2EBEB;fill:color(display-p3 0.9490 0.9216 0.9216);fill-opacity:1;"/>
<path d="M16.4809 36.9685C16.4899 37.0314 16.4899 37.0943 16.4809 37.1573C16.4719 37.2202 16.454 37.2741 16.436 37.3281C16.418 37.382 16.382 37.4359 16.3551 37.4899C16.3191 37.5438 16.2742 37.5887 16.2202 37.6337C16.2113 37.5708 16.2113 37.5078 16.2202 37.4449C16.2292 37.382 16.2472 37.3281 16.2652 37.2741C16.2922 37.2202 16.3191 37.1663 16.3461 37.1123C16.382 37.0584 16.427 37.0134 16.4809 36.9685Z" fill="#F2EBEB" style="fill:#F2EBEB;fill:color(display-p3 0.9490 0.9216 0.9216);fill-opacity:1;"/>
<path d="M19.0697 34.1371C19.0697 34.1371 19.5191 33.4719 19.9506 33.1663C20.382 32.8607 20.8135 32.8427 21.2629 33.1304C21.7393 33.427 22.018 33.6427 22.1079 34.1731C22.1977 34.7034 22.1258 35.2068 21.4157 35.4764C20.7056 35.7461 19.6359 34.9371 19.2674 35.1888C18.8989 35.4405 18.3685 35.1528 18.4135 34.8652C18.4584 34.5776 18.4584 34.5506 19.0697 34.1371Z" fill="#A04040" style="fill:#A04040;fill:color(display-p3 0.6275 0.2510 0.2510);fill-opacity:1;"/>
<path d="M21.6584 36.3483C21.3348 36.4202 20.2921 36.5461 20.2921 36.5461C20.2921 36.5461 19.9056 37.0584 19.7888 37.0045C19.6719 36.9506 19.5101 36.3034 19.3753 35.8899C19.2405 35.4764 19.2045 34.8112 19.2045 34.8112C19.2405 34.8742 19.6719 35.1348 20.1753 35.1169C20.4809 35.1079 20.8944 34.8202 20.8944 34.8202C20.8944 34.8202 20.2652 34.5416 20.7506 34.2899C21.236 34.0382 21.3258 34.9011 21.4427 34.9101C21.6944 34.9371 22.0629 35.5124 22.3685 35.5843L21.6584 36.3483Z" fill="#EA8383" style="fill:#EA8383;fill:color(display-p3 0.9176 0.5137 0.5137);fill-opacity:1;"/>
<path d="M20.4629 35.3865C20.445 35.4045 20.445 35.4135 20.436 35.4135C20.427 35.4225 20.427 35.4225 20.418 35.4314C20.4 35.4314 20.391 35.4314 20.3551 35.4135C20.3461 35.3865 20.3641 35.3595 20.4 35.3416C20.409 35.3416 20.427 35.3416 20.436 35.3416C20.454 35.3505 20.4629 35.3685 20.4629 35.3865Z" fill="#000001" style="fill:#000001;fill:color(display-p3 0.0000 0.0000 0.0039);fill-opacity:1;"/>
<path d="M20.427 35.5574C20.4 35.5843 20.382 35.5933 20.364 35.5933C20.3461 35.5933 20.3371 35.5843 20.3011 35.5663C20.3011 35.5484 20.3101 35.5304 20.3191 35.5214C20.3281 35.5124 20.3461 35.5034 20.355 35.5034C20.391 35.5034 20.418 35.5304 20.427 35.5574Z" fill="#000001" style="fill:#000001;fill:color(display-p3 0.0000 0.0000 0.0039);fill-opacity:1;"/>
<path d="M20.8944 35.9438C20.8135 35.9618 20.7596 36.0337 20.7686 36.1146C20.7865 36.2494 21.1281 36.1955 21.1641 36.0067C21.2 35.818 20.8944 35.9438 20.8944 35.9438Z" fill="#A04040" style="fill:#A04040;fill:color(display-p3 0.6275 0.2510 0.2510);fill-opacity:1;"/>
<path d="M20.7506 35.854C20.8045 35.836 20.8674 35.845 20.9214 35.8719C20.9753 35.9079 21.0202 35.9528 21.0382 36.0068C21.0562 36.0607 21.0562 36.1326 21.0382 36.1865C21.0292 36.2135 21.0202 36.2405 21.0023 36.2585C20.9843 36.2854 20.9663 36.3034 20.9393 36.3124C20.9304 36.2854 20.9214 36.2585 20.9214 36.2315L20.9034 36.1686C20.8944 36.1236 20.8854 36.0967 20.8674 36.0607C20.8584 36.0247 20.8405 35.9978 20.8225 35.9618C20.8135 35.9438 20.7865 35.8989 20.7506 35.854Z" fill="#000001" style="fill:#000001;fill:color(display-p3 0.0000 0.0000 0.0039);fill-opacity:1;"/>
<path d="M20.0135 35.2247C19.9506 35.2876 19.8876 35.3505 19.8157 35.4045C19.7888 35.4314 19.7618 35.4494 19.7258 35.4764C19.6899 35.5033 19.6629 35.5303 19.618 35.5752C19.591 35.5213 19.582 35.4674 19.6 35.4045C19.618 35.3505 19.6449 35.2966 19.6899 35.2606C19.7348 35.2247 19.7798 35.1977 19.8337 35.1887C19.9056 35.1887 19.9685 35.1977 20.0135 35.2247Z" fill="#A04040" style="fill:#A04040;fill:color(display-p3 0.6275 0.2510 0.2510);fill-opacity:1;"/>
<path d="M20.0404 35.3595C20.1303 35.4224 20.1663 35.5393 20.1393 35.6381C20.1213 35.6921 20.0944 35.737 20.0584 35.773C20.0404 35.791 20.0225 35.8089 19.9955 35.8179C19.9685 35.8269 19.9506 35.8359 19.9236 35.8449C19.9326 35.8269 19.9506 35.7999 19.9685 35.782C19.9775 35.764 19.9955 35.746 20.0045 35.728C20.0225 35.6921 20.0404 35.6561 20.0584 35.6112C20.0674 35.5752 20.0764 35.5303 20.0674 35.4853C20.0584 35.4494 20.0584 35.4044 20.0404 35.3595Z" fill="#000001" style="fill:#000001;fill:color(display-p3 0.0000 0.0000 0.0039);fill-opacity:1;"/>
<path d="M24.8225 35.6921C24.8225 35.6921 23.0966 35.1438 22.7191 35.2157C22.3416 35.2876 20.2921 36.9416 19.627 37.2742C18.9618 37.6067 18.5753 37.8225 18.5753 37.8225C18.5753 37.8225 21.0202 37.9213 21.3528 37.8135C21.6854 37.7056 22.3056 37.2202 22.7551 37.1483C23.2045 37.0764 24.6876 36.9416 24.8135 36.6989C24.9393 36.4562 24.8225 35.6921 24.8225 35.6921Z" fill="#EA8383" style="fill:#EA8383;fill:color(display-p3 0.9176 0.5137 0.5137);fill-opacity:1;"/>
<path d="M21.6494 33.391C21.6494 33.391 22.1978 33.9842 22.8899 33.8225C23.582 33.6607 24.5708 33.6337 24.6787 34.2359C24.7865 34.8382 25.9461 35.1168 25.9461 35.6022C25.9461 36.0876 24.8225 35.6921 24.8225 35.6921C24.8225 35.6921 23.0876 34.9281 22.3775 35.4135C22.009 35.6651 21.4517 34.8921 21.4517 34.8921L21.6494 33.391Z" fill="#A04040" style="fill:#A04040;fill:color(display-p3 0.6275 0.2510 0.2510);fill-opacity:1;"/>
<path d="M21.973 33.8225C22.1708 33.8495 22.3685 33.8225 22.5573 33.7506C22.6472 33.7146 22.7371 33.6787 22.818 33.6248C22.9168 33.5708 23.0157 33.5259 23.1236 33.4989C23.3393 33.454 23.564 33.463 23.7708 33.5259C23.8786 33.5528 23.9775 33.6068 24.0584 33.6697C24.1483 33.7326 24.2022 33.8315 24.2112 33.9484C24.1753 33.8585 24.1034 33.7866 24.0135 33.7506C23.9236 33.7057 23.8337 33.6787 23.7348 33.6607C23.6359 33.6427 23.5461 33.6337 23.4472 33.6427C23.3483 33.6427 23.2584 33.6517 23.1685 33.6787C23.0786 33.6967 22.9888 33.7326 22.9079 33.7776C22.809 33.8315 22.7101 33.8675 22.6022 33.8854C22.3865 33.9394 22.1618 33.9124 21.973 33.8225Z" fill="#A04040" style="fill:#A04040;fill:color(display-p3 0.6275 0.2510 0.2510);fill-opacity:1;"/>
<path d="M18.1888 35.027C18.1798 34.9011 18.2067 34.7663 18.2517 34.6495C18.2966 34.5236 18.3685 34.4158 18.4674 34.3169C18.5663 34.218 18.6921 34.1551 18.827 34.1281C18.9528 34.1011 19.0876 34.1191 19.2135 34.1731C19.0966 34.191 18.9798 34.218 18.8719 34.2629C18.773 34.3079 18.6831 34.3708 18.6022 34.4427C18.4315 34.6135 18.2966 34.8113 18.1888 35.027Z" fill="#A04040" style="fill:#A04040;fill:color(display-p3 0.6275 0.2510 0.2510);fill-opacity:1;"/>
<path d="M24.4449 34.1641C24.6067 34.2899 24.7775 34.3978 24.9573 34.4966C25.1281 34.5955 25.3079 34.6764 25.4966 34.7393L25.5685 34.7663L25.6494 34.7933C25.7034 34.8113 25.7573 34.8382 25.8023 34.8652C25.9011 34.9191 25.982 35 26.0539 35.0899C26.1798 35.2697 26.2337 35.4854 26.2067 35.7011C26.1708 35.5034 26.0809 35.3236 25.9461 35.1798C25.8831 35.1169 25.8022 35.0629 25.7214 35.018C25.6764 35 25.6405 34.982 25.5955 34.9641L25.5236 34.9461L25.4427 34.9191C25.2449 34.8472 25.0472 34.7483 24.8854 34.6225C24.7056 34.4966 24.5618 34.3438 24.4449 34.1641Z" fill="#A04040" style="fill:#A04040;fill:color(display-p3 0.6275 0.2510 0.2510);fill-opacity:1;"/>
<path d="M22.3685 35.4225C22.0899 35.6742 21.7933 35.9079 21.4876 36.1326C21.182 36.3573 20.8854 36.573 20.5708 36.7888C20.418 36.8966 20.2562 36.9955 20.0944 37.0944C19.9326 37.1933 19.7708 37.2921 19.591 37.373C19.2494 37.5348 18.9079 37.6877 18.5663 37.8315C18.8809 37.6337 19.2135 37.445 19.5371 37.2562C19.8607 37.0674 20.1573 36.8517 20.4719 36.636C20.7865 36.4202 21.0921 36.2135 21.4067 36.0068C21.7213 35.8 22.0449 35.6023 22.3685 35.4225Z" fill="#000001" style="fill:#000001;fill:color(display-p3 0.0000 0.0000 0.0039);fill-opacity:1;"/>
<path d="M21.7573 37.7146C21.7573 37.7146 25.2989 37.6337 25.3168 37.4989C25.3348 37.364 24.8135 35.6921 24.8135 35.6921L24.418 35.5663C24.418 35.5663 24.2292 36.5191 23.7798 36.7348C23.3303 36.9506 21.991 37.1843 21.7573 37.7146Z" fill="#000001" style="fill:#000001;fill:color(display-p3 0.0000 0.0000 0.0039);fill-opacity:1;"/>
<path d="M12.3281 42.0562C12.3281 42.0562 11.8427 38.0113 12.0045 37.7236C12.1663 37.436 23.6899 37.6607 23.6899 37.6607L38.2697 40.4202L47.609 41.3641L47.2315 42.0652C47.2315 42.0562 13.2719 42.7304 12.3281 42.0562Z" fill="#2167A6" style="fill:#2167A6;fill:color(display-p3 0.1303 0.4057 0.6516);fill-opacity:1;"/>
<path d="M35.5101 45.5259C35.8697 45.454 36.2113 45.3102 36.5169 45.1124C36.8135 44.9236 37.0382 44.636 37.1551 44.3034C37.209 44.1326 37.245 43.9618 37.245 43.7821C37.254 43.6023 37.2629 43.4225 37.254 43.2337C37.254 43.054 37.236 42.8742 37.2 42.6944C37.182 42.6045 37.1551 42.5236 37.1191 42.4338C37.0922 42.3439 37.0292 42.272 36.9573 42.218C37.0472 42.254 37.1191 42.3259 37.1641 42.4068C37.218 42.4877 37.254 42.5776 37.2809 42.6675C37.3349 42.8472 37.3708 43.036 37.3888 43.2158L37.3978 43.3506L37.4068 43.4944C37.4068 43.5843 37.4068 43.6832 37.4068 43.7731C37.4068 43.9618 37.3798 44.1596 37.3169 44.3394C37.254 44.5281 37.1551 44.6989 37.0292 44.8427C36.9034 44.9866 36.7506 45.1124 36.5888 45.2113C36.2562 45.418 35.8877 45.5169 35.5101 45.5259Z" fill="#000001" style="fill:#000001;fill:color(display-p3 0.0000 0.0000 0.0039);fill-opacity:1;"/>
<path d="M45.0832 37.8674C45.0832 37.8674 42.4854 36.546 41.7753 36.618C41.0652 36.6899 40.2382 36.591 39.2944 36.6449C38.3506 36.6989 28.382 34.955 27.8966 35.0269C27.4113 35.0989 24.8045 35.7011 24.8045 35.7011C24.8045 35.7011 24.7596 36.6809 24.436 37.1573C24.1124 37.6337 23.6809 37.6517 23.6809 37.6517C23.6809 37.6517 22.845 38.6854 23.2854 39.782C23.7259 40.8786 23.9416 41.6247 24.427 41.6247C24.9124 41.6247 47.3214 41.9483 47.591 41.355C47.8607 40.7618 47.9686 38.1191 47.591 38.1191C47.2135 38.1191 45.0832 37.8674 45.0832 37.8674Z" fill="#F2EBEB" style="fill:#F2EBEB;fill:color(display-p3 0.9490 0.9216 0.9216);fill-opacity:1;"/>
<path d="M25.3169 37.8674C25.982 37.8404 26.6472 37.8225 27.3034 37.8045L29.2899 37.7595C30.6202 37.7326 31.9416 37.7236 33.2719 37.7056C34.6023 37.6966 35.9236 37.6876 37.2539 37.6876L39.2494 37.6966C39.9146 37.7056 40.5798 37.7056 41.245 37.7236C40.5798 37.7505 39.9146 37.7685 39.2584 37.7865L37.2629 37.8314C35.9326 37.8584 34.6112 37.8674 33.2809 37.8854C31.9506 37.8944 30.6292 37.9034 29.2989 37.9034L27.3034 37.8944C26.6472 37.8854 25.982 37.8854 25.3169 37.8674Z" fill="#000001" style="fill:#000001;fill:color(display-p3 0.0000 0.0000 0.0039);fill-opacity:1;"/>
<path d="M29.7843 27.3416C30.009 27.0719 30.2607 26.8202 30.5213 26.5955C30.5933 26.5416 30.6562 26.4876 30.7371 26.4337C30.773 26.4067 30.818 26.3798 30.8539 26.3618C30.8989 26.3348 30.9438 26.3169 30.9978 26.3079C31.0157 26.3079 31.0337 26.3079 31.0427 26.3079C31.0607 26.3079 31.0876 26.3079 31.1056 26.3168C31.1236 26.3258 31.1506 26.3438 31.1596 26.3618C31.1685 26.3798 31.1775 26.3977 31.1865 26.4157C31.1955 26.4697 31.1955 26.5146 31.1955 26.5685V26.8292C31.1955 27.1798 31.2045 27.5303 31.1955 27.8809C31.1955 28.0517 31.1955 28.2315 31.1865 28.4022C31.1775 28.573 31.1775 28.7528 31.1775 28.9236L31.0607 28.8786C31.3753 28.582 31.6899 28.2944 32.0225 28.0157C31.7438 28.3393 31.4472 28.6629 31.1596 28.9685L31.0517 29.0854L31.0427 28.9236C31.0337 28.7528 31.0337 28.573 31.0337 28.4022C31.0337 28.2315 31.0247 28.0517 31.0247 27.8809C31.0247 27.5303 31.0247 27.1798 31.0247 26.8292V26.5685C31.0247 26.5326 31.0247 26.4966 31.0247 26.4607C31.0247 26.4607 31.0157 26.4607 31.0067 26.4607C30.9348 26.4786 30.8629 26.5056 30.8 26.5506C30.7281 26.5955 30.6562 26.6404 30.5843 26.6944C30.3236 26.8921 30.0539 27.1169 29.7843 27.3416Z" fill="#2167A6" style="fill:#2167A6;fill:color(display-p3 0.1303 0.4057 0.6516);fill-opacity:1;"/>
<path d="M33.173 26.5416C33.3348 26.3618 33.5056 26.182 33.6854 26.0112C33.8652 25.8404 34.0449 25.6697 34.2337 25.5079C34.3326 25.427 34.4315 25.355 34.5303 25.2831C34.6382 25.2022 34.764 25.1483 34.8899 25.1123C34.9348 25.1034 34.9798 25.1034 35.0247 25.1213C35.0697 25.1483 35.1056 25.1932 35.1236 25.2382C35.1326 25.2741 35.1326 25.3101 35.1326 25.3461V25.4359L35.1416 25.8045C35.1416 26.2989 35.1506 26.7843 35.1416 27.2786C35.1416 27.5213 35.1416 27.773 35.1326 28.0157C35.1236 28.2584 35.1236 28.5101 35.1236 28.7528L35.0067 28.7079C35.2225 28.5011 35.4472 28.2944 35.6719 28.0876C35.8966 27.8809 36.1214 27.6741 36.3461 27.4764C36.1483 27.7011 35.9416 27.9168 35.7348 28.1416C35.5281 28.3663 35.3213 28.582 35.1056 28.7977L34.9978 28.9146V28.7528C34.9888 28.5101 34.9888 28.2584 34.9888 28.0157C34.9888 27.773 34.9798 27.5213 34.9798 27.2786C34.9798 26.7843 34.9798 26.2989 34.9798 25.8045L34.9888 25.4359C34.9888 25.382 34.9888 25.3281 34.9888 25.2741C34.9888 25.2562 34.9798 25.2562 34.9798 25.2562C34.9618 25.2562 34.9528 25.2562 34.9348 25.2562C34.827 25.2831 34.7191 25.3281 34.6292 25.391C34.5303 25.4539 34.4315 25.5258 34.3326 25.5977C33.9191 25.8944 33.5416 26.218 33.173 26.5416Z" fill="#2167A6" style="fill:#2167A6;fill:color(display-p3 0.1303 0.4057 0.6516);fill-opacity:1;"/>
<path d="M27.9685 30.3258C28.0944 30.155 28.2382 30.0022 28.391 29.8674C28.427 29.8314 28.4719 29.7955 28.5169 29.7685C28.5438 29.7505 28.5618 29.7326 28.5888 29.7236C28.6157 29.7056 28.6427 29.6966 28.6786 29.6876C28.6876 29.6876 28.7056 29.6876 28.7146 29.6876C28.7326 29.6876 28.7506 29.6876 28.7595 29.6966C28.7775 29.7056 28.7955 29.7146 28.8045 29.7326C28.8135 29.7416 28.8225 29.7595 28.8225 29.7775C28.8315 29.8135 28.8315 29.8404 28.8315 29.8764L28.8404 30.0292C28.8404 30.2359 28.8494 30.4427 28.8404 30.6494C28.8404 30.7573 28.8404 30.8562 28.8315 30.964C28.8225 31.0719 28.8225 31.1708 28.8225 31.2786L28.7056 31.2337C28.8944 31.0629 29.0921 30.9011 29.2989 30.7483C29.1461 30.955 28.9753 31.1438 28.8045 31.3326L28.6966 31.4494L28.6876 31.2876C28.6786 31.1798 28.6786 31.0809 28.6786 30.973C28.6786 30.8652 28.6697 30.7663 28.6697 30.6584C28.6697 30.4517 28.6697 30.2449 28.6697 30.0382L28.6786 29.8854C28.6786 29.8584 28.6786 29.8225 28.6786 29.8314C28.6786 29.8404 28.6786 29.8314 28.6876 29.8404C28.6966 29.8494 28.6966 29.8494 28.7056 29.8494H28.7146C28.6697 29.8584 28.6337 29.8764 28.5977 29.8944C28.5528 29.9213 28.5169 29.9483 28.4719 29.9753C28.3011 30.0652 28.1393 30.2 27.9685 30.3258Z" fill="#2167A6" style="fill:#2167A6;fill:color(display-p3 0.1303 0.4057 0.6516);fill-opacity:1;"/>
<path d="M37.9371 21.7506C37.4787 21.6337 37.0652 21.3641 36.7775 20.9776C36.5169 20.636 36.373 20.2135 36.382 19.782C36.2382 19.7551 36.2832 19.7191 36.382 19.6832C36.382 19.6562 36.382 19.6292 36.391 19.6023C36.4 19.5214 36.409 19.4405 36.427 19.3686C36.4629 19.1798 36.5258 18.991 36.6067 18.8113C36.7416 18.5416 36.9393 18.2989 37.182 18.1101C36.9483 18.0832 36.7056 18.0922 36.4719 18.1371C36.436 18.1461 36.391 18.1551 36.3551 18.1641C36.3551 18.1641 35.4921 18.3978 35.0697 19.2427C34.9888 19.4135 34.9258 19.6023 34.8899 19.8C34.8719 19.8809 34.8629 19.9528 34.8539 20.0337C34.8539 20.0607 34.8539 20.0877 34.845 20.1146C34.7371 20.1506 34.7011 20.1865 34.845 20.2135C34.845 20.4652 34.8899 20.7079 34.9798 20.9416C35.0427 21.1124 35.1326 21.2742 35.2494 21.418C35.5371 21.7955 35.9416 22.0652 36.409 22.191C36.5798 22.236 36.7596 22.254 36.9393 22.245C37.0832 22.236 37.218 22.218 37.3528 22.1731C37.6315 22.0922 37.9011 21.9573 38.1348 21.7776C38.0629 21.7776 38 21.7686 37.9371 21.7506Z" fill="#2167A6" style="fill:#2167A6;fill:color(display-p3 0.1303 0.4057 0.6516);fill-opacity:1;"/>
<path d="M43.1236 30.4158C43.6597 30.4158 44.0944 29.9812 44.0944 29.445C44.0944 28.9089 43.6597 28.4742 43.1236 28.4742C42.5874 28.4742 42.1528 28.9089 42.1528 29.445C42.1528 29.9812 42.5874 30.4158 43.1236 30.4158Z" fill="#F2EBEB" style="fill:#F2EBEB;fill:color(display-p3 0.9490 0.9216 0.9216);fill-opacity:1;"/>
<path d="M25.9371 22.2629C26.3392 22.2629 26.6652 21.937 26.6652 21.5349C26.6652 21.1327 26.3392 20.8068 25.9371 20.8068C25.535 20.8068 25.209 21.1327 25.209 21.5349C25.209 21.937 25.535 22.2629 25.9371 22.2629Z" fill="#F2EBEB" style="fill:#F2EBEB;fill:color(display-p3 0.9490 0.9216 0.9216);fill-opacity:1;"/>
<path d="M44.6966 18.9821C45.0689 18.9821 45.3708 18.6803 45.3708 18.3079C45.3708 17.9356 45.0689 17.6338 44.6966 17.6338C44.3243 17.6338 44.0225 17.9356 44.0225 18.3079C44.0225 18.6803 44.3243 18.9821 44.6966 18.9821Z" fill="#F2EBEB" style="fill:#F2EBEB;fill:color(display-p3 0.9490 0.9216 0.9216);fill-opacity:1;"/>
<path d="M18.8899 16.3573C19.2622 16.3573 19.564 16.0555 19.564 15.6832C19.564 15.3109 19.2622 15.009 18.8899 15.009C18.5176 15.009 18.2157 15.3109 18.2157 15.6832C18.2157 16.0555 18.5176 16.3573 18.8899 16.3573Z" fill="#F2EBEB" style="fill:#F2EBEB;fill:color(display-p3 0.9490 0.9216 0.9216);fill-opacity:1;"/>
</g>
<defs>
<clipPath id="clip0_2846_623">
<rect width="40.0899" height="32" fill="white" style="fill:white;fill-opacity:1;" transform="translate(10 15)"/>
</clipPath>
</defs>
</svg>
