<svg width="60" height="61" viewBox="0 0 60 61" fill="none" xmlns="http://www.w3.org/2000/svg">
<circle cx="30" cy="30.5" r="30" fill="white" fill-opacity="0.5" style="fill:white;fill-opacity:0.5;"/>
<g clip-path="url(#clip0_2846_606)">
<path d="M13.5531 34.9863C13.5531 34.9863 9.10057 35.3155 9.02743 36.1018C8.95428 36.888 15.2537 45.3452 16.3691 45.8663C17.4846 46.3875 39.8663 47.0275 39.9303 46.5703C39.9943 46.1132 40.552 42.1269 39.3726 41.9989C38.1931 41.8709 22.7234 41.2766 22.7234 41.2766C22.7234 41.2766 13.5531 36.0378 13.5531 34.9863Z" fill="#2167A6" style="fill:#2167A6;fill:color(display-p3 0.1303 0.4057 0.6516);fill-opacity:1;"/>
<path d="M39.1623 45.0345C37.8548 44.9797 36.5474 44.9157 35.2308 44.8608L31.2994 44.6597C28.6846 44.5225 26.0606 44.3671 23.4457 44.2025C22.1383 44.1111 20.8308 44.0288 19.5234 43.91C19.3588 43.8917 19.1943 43.8825 19.0297 43.8551C18.9931 43.8551 18.9474 43.846 18.9017 43.8368L18.8377 43.8277C18.8194 43.8185 18.8011 43.8094 18.7828 43.8002C18.7737 43.7911 18.7646 43.782 18.7554 43.7728C18.6914 43.7088 18.6366 43.654 18.5817 43.59L17.9143 42.8677L16.5703 41.4322C15.6743 40.4722 14.7783 39.5214 13.8548 38.5888C13.3886 38.1317 12.9314 37.6745 12.456 37.2174C12.2183 36.9888 11.9806 36.7694 11.7337 36.5591C11.6148 36.4494 11.4868 36.3488 11.3497 36.2482C11.2857 36.2025 11.2126 36.1568 11.1486 36.1111C11.2217 36.1477 11.2857 36.1934 11.3588 36.2482C11.496 36.3397 11.624 36.4402 11.752 36.55C12.008 36.7602 12.2548 36.9797 12.4926 37.1991C12.9771 37.638 13.4526 38.0951 13.9188 38.5614C14.8514 39.4848 15.7657 40.4265 16.6708 41.3774C17.128 41.8528 17.576 42.3282 18.024 42.8037L18.7006 43.5168C18.7554 43.5717 18.8103 43.6357 18.8743 43.6905L18.8926 43.7088L18.9474 43.718C18.984 43.7271 19.0297 43.7271 19.0663 43.7362C19.2308 43.7545 19.3863 43.7728 19.5508 43.782C20.8583 43.8917 22.1657 43.974 23.4731 44.0562C26.088 44.23 28.7028 44.3854 31.3268 44.55L35.2583 44.7968L39.1623 45.0345Z" fill="#F2EBEB" style="fill:#F2EBEB;fill:color(display-p3 0.9490 0.9216 0.9216);fill-opacity:1;"/>
<path d="M16.3234 39.1922C16.3234 39.1922 18.1885 43.727 20.0263 43.2699C21.864 42.8128 19.3497 39.6219 16.5154 38.863C16.5154 38.863 16.2137 38.9453 16.3234 39.1922Z" fill="#A04040" style="fill:#A04040;fill:color(display-p3 0.6275 0.2510 0.2510);fill-opacity:1;"/>
<path d="M27.2857 31.1555C27.3406 30.6161 27.8343 29.3178 27.7428 28.8515C27.6606 28.5041 27.5051 28.1841 27.2857 27.9098C27.2857 27.9098 27.3223 27.1784 27.2034 27.2058C27.0846 27.2333 26.8743 27.855 26.8743 27.855C26.8743 27.087 26.7188 27.4435 26.4903 28.0561C26.2617 28.6687 25.5668 29.8573 25.5668 29.8573C25.5668 29.8573 24.9726 29.0435 24.7623 29.1533C24.552 29.263 25.0274 29.9578 25.1828 30.351C25.3657 30.8081 25.6583 31.0184 25.7406 31.5213H25.7497C25.8503 32.1978 27.5326 35.6538 27.4777 35.8184C27.4137 36.0013 23.3268 37.199 23.3268 37.199L25.9143 39.5395C25.9143 39.5395 30.312 37.135 30.3668 36.5315C30.4217 36.047 28.1268 32.4538 27.2857 31.1555Z" fill="#EA8383" style="fill:#EA8383;fill:color(display-p3 0.9176 0.5137 0.5137);fill-opacity:1;"/>
<path d="M26.3897 30.5064C26.3074 30.4515 26.2343 30.3967 26.1703 30.3327C26.1063 30.2687 26.0423 30.2138 25.9783 30.1498C25.9143 30.0858 25.8503 30.031 25.7954 29.9761C25.7314 29.9121 25.6583 29.8755 25.576 29.8481C25.5943 29.839 25.6217 29.8207 25.6491 29.8207C25.6766 29.8207 25.704 29.8115 25.7314 29.8115C25.7588 29.8115 25.7863 29.8207 25.8046 29.8207C25.8228 29.8207 25.8503 29.839 25.8777 29.8481C25.9691 29.8938 26.0514 29.9487 26.1154 30.0127C26.1794 30.0767 26.2434 30.1498 26.2891 30.2321C26.3348 30.3235 26.3714 30.415 26.3897 30.5064Z" fill="#000001" style="fill:#000001;fill:color(display-p3 0.0000 0.0000 0.0039);fill-opacity:1;"/>
<path d="M26.8286 30.04C26.8377 29.8571 26.8651 29.6834 26.92 29.5097C26.9474 29.4183 26.984 29.336 27.0206 29.2537C27.0663 29.1623 27.1303 29.08 27.2217 29.0251L27.176 29.1166C27.1577 28.9977 27.1394 28.8789 27.1303 28.7691C27.1211 28.6503 27.1211 28.5314 27.1211 28.4126C27.1211 28.3486 27.1303 28.2937 27.1394 28.2297C27.1486 28.1657 27.176 28.1109 27.1943 28.056C27.2034 28.0194 27.2308 27.992 27.2583 27.9646C27.2674 27.9554 27.2857 27.9463 27.2948 27.9463C27.304 27.9463 27.3223 27.9463 27.3314 27.9554C27.3497 27.9646 27.3588 27.9829 27.368 27.992C27.3954 28.0469 27.4228 28.1017 27.4411 28.1566C27.4046 28.1109 27.368 28.0651 27.3314 28.0286C27.3223 28.0194 27.3131 28.0194 27.304 28.0103C27.2948 28.0286 27.2857 28.0469 27.2857 28.0743C27.2674 28.184 27.2583 28.2937 27.2674 28.4034C27.2674 28.5131 27.2857 28.632 27.2948 28.7417L27.3406 29.08L27.3497 29.144L27.2948 29.1714C27.2308 29.2171 27.1851 29.272 27.1486 29.336C27.1028 29.4091 27.0663 29.4823 27.0297 29.5554C26.9657 29.7109 26.9017 29.8754 26.8286 30.04Z" fill="#000001" style="fill:#000001;fill:color(display-p3 0.0000 0.0000 0.0039);fill-opacity:1;"/>
<path d="M26.3714 28.8698C26.4263 28.8058 26.4903 28.7601 26.5634 28.7235C26.6365 28.687 26.7097 28.6687 26.792 28.6595C26.8743 28.6504 26.9565 28.6504 27.0388 28.6778C27.1211 28.6961 27.1943 28.7509 27.24 28.8241C27.1668 28.8149 27.0937 28.8149 27.0205 28.8241C26.9565 28.8241 26.8834 28.8424 26.8194 28.8424C26.664 28.8698 26.5177 28.8789 26.3714 28.8698Z" fill="#000001" style="fill:#000001;fill:color(display-p3 0.0000 0.0000 0.0039);fill-opacity:1;"/>
<path d="M38.7783 38.4515L38.8605 44.8423C38.8605 44.8423 19.8343 45.7566 17.832 40.3349C16.9268 37.8755 19.9165 37.6926 23.4548 36.7418C23.784 36.6503 24.1314 36.7418 24.3783 36.9886L26.1885 38.7806L38.7783 38.4515Z" fill="#000001" style="fill:#000001;fill:color(display-p3 0.0000 0.0000 0.0039);fill-opacity:1;"/>
<path d="M13.4708 33.7612C13.4708 33.7612 12.584 34.7121 12.264 35.4984C11.9531 36.2755 12.1726 36.6686 12.7943 37.2812C13.4434 37.9304 14.1291 38.5338 14.6411 38.5521C15.5188 38.5978 16.2868 38.2046 16.4605 36.9886C16.6343 35.7726 14.9703 34.3646 15.2263 33.6972C15.4823 33.0298 14.8423 32.2892 14.4034 32.4629C13.9645 32.6366 13.8914 32.6458 13.4708 33.7612Z" fill="#A04040" style="fill:#A04040;fill:color(display-p3 0.6275 0.2510 0.2510);fill-opacity:1;"/>
<path d="M21.5806 38.8263C21.7634 38.6983 21.224 38.5886 20.136 38.4606C18.9383 38.3234 17.9234 37.6012 17.9051 37.0526C17.8869 36.504 17.9509 34.7303 17.9509 34.7303C17.9509 34.7303 18.6183 33.9349 18.4903 33.7703C18.3623 33.6057 17.0457 33.6789 16.3417 33.6149C15.6377 33.5509 14.5771 33.7429 14.5771 33.7429C14.6869 33.7703 15.2629 34.3737 15.4091 35.1692C15.5006 35.6537 15.208 36.4126 15.208 36.4126C15.208 36.4126 14.5406 35.5257 14.3211 36.376C14.1017 37.2263 15.4914 37.0617 15.5554 37.2537C15.6834 37.6469 18.4537 39.4754 18.6823 39.9234C18.7006 40.0057 20.8949 39.3017 21.5806 38.8263Z" fill="#EA8383" style="fill:#EA8383;fill:color(display-p3 0.9176 0.5137 0.5137);fill-opacity:1;"/>
<path d="M15.6652 35.2516C15.6652 35.2516 16.0309 34.2642 16.7714 34.4562C16.7714 34.4562 16.3874 35.471 15.6652 35.2516Z" fill="#F2EBEB" style="fill:#F2EBEB;fill:color(display-p3 0.9490 0.9216 0.9216);fill-opacity:1;"/>
<path d="M15.6377 35.288C15.7108 35.032 15.848 34.8035 16.0308 34.6206C16.1314 34.5292 16.2503 34.456 16.3783 34.4286C16.5063 34.392 16.6434 34.4012 16.7714 34.4652C16.6434 34.4469 16.5154 34.456 16.3966 34.5018C16.2777 34.5475 16.1771 34.6115 16.0857 34.6938C15.9943 34.776 15.912 34.8766 15.8388 34.9772C15.7748 35.0686 15.7017 35.1783 15.6377 35.288Z" fill="#000001" style="fill:#000001;fill:color(display-p3 0.0000 0.0000 0.0039);fill-opacity:1;"/>
<path d="M15.9577 35.5166C15.9395 35.5166 15.912 35.4983 15.9029 35.48C15.8937 35.4617 15.8846 35.4435 15.8937 35.4252C15.8937 35.3886 15.9212 35.352 15.9577 35.3337C15.9669 35.352 15.976 35.3703 15.976 35.3886C15.976 35.4069 15.976 35.416 15.976 35.4343C15.976 35.4435 15.976 35.4617 15.9669 35.4709C15.9669 35.48 15.9577 35.4892 15.9577 35.5166Z" fill="#000001" style="fill:#000001;fill:color(display-p3 0.0000 0.0000 0.0039);fill-opacity:1;"/>
<path d="M16.2137 35.3979C16.1771 35.3888 16.1406 35.3522 16.1406 35.3065C16.1406 35.2882 16.1406 35.2608 16.1497 35.2425C16.1588 35.2242 16.1771 35.2059 16.1954 35.1968C16.2137 35.2242 16.2228 35.2516 16.232 35.2882C16.232 35.3248 16.2228 35.3613 16.2137 35.3979Z" fill="#000001" style="fill:#000001;fill:color(display-p3 0.0000 0.0000 0.0039);fill-opacity:1;"/>
<path d="M16.9909 36.0012C16.9909 36.0012 16.9909 35.7635 17.2103 35.7361C17.4297 35.7086 17.4754 36.2755 17.1829 36.4035C16.8903 36.5315 16.9909 36.0012 16.9909 36.0012Z" fill="#000001" style="fill:#000001;fill:color(display-p3 0.0000 0.0000 0.0039);fill-opacity:1;"/>
<path d="M14.9703 38.4424C15.0434 38.543 15.1257 38.6527 15.208 38.7442C15.2446 38.7899 15.2903 38.8356 15.336 38.8813C15.3543 38.8996 15.3817 38.9179 15.4 38.927C15.4183 38.9362 15.4366 38.9453 15.4548 38.9453C15.464 38.9453 15.4914 38.9087 15.5006 38.8539L15.5463 38.671C15.5646 38.607 15.5828 38.543 15.6103 38.479C15.6194 38.4424 15.6377 38.4059 15.656 38.3784C15.6651 38.3602 15.6834 38.3419 15.6926 38.3236C15.7108 38.3053 15.7291 38.287 15.7566 38.2779C15.784 38.2596 15.8206 38.2504 15.848 38.2596C15.8754 38.2596 15.9028 38.2687 15.9211 38.2779C15.9577 38.2962 15.9943 38.3144 16.0308 38.3419C16.0857 38.3784 16.1314 38.4242 16.1771 38.479C16.1954 38.4973 16.2137 38.5064 16.2046 38.5064C16.1954 38.5064 16.1771 38.5156 16.1863 38.5156C16.1863 38.5064 16.1954 38.5064 16.1954 38.4973C16.2137 38.4424 16.2228 38.3784 16.232 38.3236C16.2411 38.287 16.2503 38.2596 16.2594 38.223C16.2686 38.2047 16.2777 38.1864 16.2868 38.1682C16.3051 38.1407 16.3326 38.1224 16.36 38.1133C16.3783 38.1042 16.3966 38.1042 16.4148 38.1133C16.424 38.1133 16.4423 38.1224 16.4514 38.1316C16.4697 38.1407 16.4788 38.159 16.4971 38.1682C16.5154 38.1956 16.5428 38.2139 16.5611 38.2413C16.6526 38.3419 16.7257 38.4424 16.7806 38.5613C16.6891 38.4699 16.5977 38.3784 16.4971 38.3053L16.424 38.2504C16.4148 38.2413 16.4057 38.2413 16.3966 38.2322C16.3874 38.2322 16.3874 38.2322 16.3966 38.2322C16.4057 38.2322 16.3966 38.2413 16.3966 38.2687C16.3874 38.2962 16.3874 38.3327 16.3874 38.3602C16.3874 38.4333 16.3783 38.4973 16.36 38.5613C16.3508 38.5887 16.3417 38.607 16.3234 38.6253C16.296 38.6619 16.2594 38.6802 16.2228 38.6802C16.168 38.6802 16.1223 38.6527 16.0766 38.6162L16.0583 38.5979L16.04 38.5796L16.0034 38.5522C15.9851 38.5339 15.9577 38.5156 15.9394 38.4973C15.9211 38.479 15.9028 38.4699 15.8754 38.4607C15.8571 38.4607 15.8571 38.4607 15.8571 38.4607L15.848 38.4699C15.848 38.4699 15.8388 38.4882 15.8297 38.4973C15.8114 38.5247 15.8023 38.543 15.7931 38.5704C15.7748 38.6253 15.7566 38.6802 15.7291 38.7442C15.72 38.7716 15.7108 38.799 15.7017 38.8356C15.6926 38.8722 15.6834 38.8996 15.6743 38.9362C15.6651 38.9727 15.6468 39.0093 15.6194 39.0459C15.5828 39.0916 15.5371 39.119 15.4823 39.119C15.4366 39.119 15.3908 39.1007 15.3543 39.0733C15.3268 39.055 15.2994 39.0276 15.272 39.0002C15.2263 38.9453 15.1897 38.8904 15.1531 38.8356C15.0708 38.6893 15.016 38.5704 14.9703 38.4424Z" fill="#000001" style="fill:#000001;fill:color(display-p3 0.0000 0.0000 0.0039);fill-opacity:1;"/>
<path d="M15.3817 35.0047C15.3451 34.9315 15.3268 34.8492 15.3268 34.767C15.3268 34.6847 15.3543 34.6024 15.3908 34.5292C15.4274 34.447 15.4914 34.383 15.5554 34.3372C15.6286 34.2915 15.7108 34.2641 15.7931 34.2732C15.7383 34.3281 15.6926 34.383 15.6468 34.447C15.6103 34.5018 15.5737 34.5567 15.5463 34.6115C15.4914 34.7212 15.4457 34.8492 15.3817 35.0047Z" fill="#A04040" style="fill:#A04040;fill:color(display-p3 0.6275 0.2510 0.2510);fill-opacity:1;"/>
<path d="M16.04 34.6755C16.04 34.6755 16.1314 35.0686 16.3874 35.0503C16.5063 34.9315 16.6068 34.7943 16.6891 34.6481C16.7805 34.4561 16.5154 34.4286 16.4423 34.4469C16.3051 34.5109 16.168 34.5932 16.04 34.6755Z" fill="#000001" style="fill:#000001;fill:color(display-p3 0.0000 0.0000 0.0039);fill-opacity:1;"/>
<path d="M32.7989 38.1406C32.5429 38.0675 31.4732 37.784 30.9703 37.8572C30.4675 37.9303 29.5989 38.7715 29.4435 38.872C29.1235 39.128 25.2926 42.008 25.2926 42.008L22.3852 40.7555L21.7817 43.2789C21.7817 43.2789 25.8137 44.9977 26.7829 44.44C27.752 43.8823 31.3177 39.2469 31.3177 39.2469C31.4549 39.1006 31.5737 38.9452 31.6743 38.7623C32.1132 38.7166 33.1463 38.6252 33.32 38.6526C33.512 38.68 33.0457 38.2229 32.7989 38.1406Z" fill="#EA8383" style="fill:#EA8383;fill:color(display-p3 0.9176 0.5137 0.5137);fill-opacity:1;"/>
<path d="M37.7269 33.6972C37.7269 33.6972 41.64 31.6401 43.9531 32.207C46.2663 32.7738 50.7463 43.1144 50.28 44.8698C49.8137 46.6252 47.0343 45.0252 47.0343 45.0252L47.1349 46.9818C47.1349 46.9818 33.9417 46.8081 34.0331 46.5521C34.1246 46.2961 35.816 41.3772 35.816 41.3772C35.816 41.3772 33.2834 43.1144 32.3051 42.447C31.3269 41.7795 31.0709 38.7898 31.0709 38.7898L35.752 38.0127L37.7269 33.6972Z" fill="#F2EBEB" style="fill:#F2EBEB;fill:color(display-p3 0.9490 0.9216 0.9216);fill-opacity:1;"/>
<path d="M42.3166 32.8925C42.3166 32.8925 39.6743 41.9714 39.336 41.8068C38.9977 41.6423 39.6743 33.4868 40.0492 33.0663C40.424 32.6457 42.3166 32.8925 42.3166 32.8925Z" fill="#EA8383" style="fill:#EA8383;fill:color(display-p3 0.9176 0.5137 0.5137);fill-opacity:1;"/>
<path d="M41.256 25.7246C43.2034 25.2949 45.288 27.9189 44.8583 30.0126C44.4286 32.1063 42.7097 31.9783 41.4846 31.6949C40.2594 31.4114 39.0343 27.1874 39.0343 27.1874C39.0343 27.1874 38.3577 26.9497 38.7234 26.3463C39.0891 25.7429 39.7383 25.9623 39.7383 25.9623C39.7383 25.9623 39.4914 25.4686 39.9669 25.2949C40.9451 24.9292 41.256 25.7246 41.256 25.7246Z" fill="#000001" style="fill:#000001;fill:color(display-p3 0.0000 0.0000 0.0039);fill-opacity:1;"/>
<path d="M41.0914 28.9063C41.0914 28.9063 41.0914 27.8 41.7772 28.3486C42.4629 28.8971 41.2652 29.6011 41.3292 29.784C41.4572 30.1771 42.3349 32.3074 42.3166 32.8926C42.3166 32.9566 41.0092 34.3097 40.1772 34.3463C39.9486 34.3554 39.9212 33.9531 40.0217 32.7097C40.0674 32.1246 39.8389 32.2526 38.9794 31.6948C37.7726 30.9177 38.1566 29.5463 38.1566 29.5463C38.1566 29.5463 36.8766 29.0068 36.8857 28.7966C36.8949 28.5863 37.9829 27.8457 38.4949 27.3703C39.0069 26.8948 39.976 26.4011 39.976 26.4011C39.976 26.4011 39.8754 26.9771 40.2686 27.1783C40.2686 27.1783 40.1954 27.8183 40.616 27.9006C40.616 27.9006 40.5154 28.5223 40.8994 28.4766C40.9086 28.4766 40.8812 28.888 41.0914 28.9063Z" fill="#A04040" style="fill:#A04040;fill:color(display-p3 0.6275 0.2510 0.2510);fill-opacity:1;"/>
<path d="M39.976 29.9852C39.976 29.9852 39.8297 29.8023 39.6469 29.912C39.464 30.0217 39.7657 30.4972 40.0675 30.424C40.3692 30.3509 39.976 29.9852 39.976 29.9852Z" fill="#EA8383" style="fill:#EA8383;fill:color(display-p3 0.9176 0.5137 0.5137);fill-opacity:1;"/>
<path d="M40.0126 29.7109C40.0583 29.7841 40.0674 29.8755 40.0583 29.9669C40.04 30.0584 40.0034 30.1407 39.9303 30.2047C39.8663 30.2687 39.784 30.3052 39.6926 30.3235C39.6469 30.3327 39.6103 30.3327 39.5646 30.3327C39.5189 30.3235 39.4823 30.3144 39.4366 30.3052C39.4732 30.2869 39.5097 30.2595 39.5463 30.2504C39.5829 30.2321 39.6103 30.2138 39.6377 30.1955C39.6926 30.1589 39.7474 30.1224 39.7932 30.0767C39.8389 30.0309 39.8754 29.9761 39.912 29.9212C39.9577 29.8481 39.9852 29.7841 40.0126 29.7109Z" fill="#000001" style="fill:#000001;fill:color(display-p3 0.0000 0.0000 0.0039);fill-opacity:1;"/>
<path d="M39.976 27.8548C39.8115 27.8183 39.6835 27.7817 39.5555 27.7543C39.4915 27.7451 39.4275 27.736 39.3635 27.736C39.2903 27.736 39.2263 27.7451 39.1349 27.7451C39.1806 27.672 39.2537 27.6171 39.3269 27.5897C39.4092 27.5623 39.4915 27.5531 39.5829 27.5623C39.6652 27.5714 39.7475 27.608 39.8115 27.6537C39.8846 27.7177 39.9486 27.7817 39.976 27.8548Z" fill="#000001" style="fill:#000001;fill:color(display-p3 0.0000 0.0000 0.0039);fill-opacity:1;"/>
<path d="M39.8846 28.2481C39.8846 28.2481 38.9977 28.0012 38.8514 28.7144C38.8514 28.7144 39.7657 28.9521 39.8846 28.2481Z" fill="#F2EBEB" style="fill:#F2EBEB;fill:color(display-p3 0.9490 0.9216 0.9216);fill-opacity:1;"/>
<path d="M39.9212 28.2388C39.7109 28.2205 39.4914 28.2388 39.2812 28.2845C39.1806 28.3119 39.0892 28.3668 39.016 28.4399C38.9429 28.5131 38.8789 28.6137 38.8514 28.7142C38.8514 28.5954 38.888 28.4857 38.9612 28.3942C39.0343 28.3028 39.1349 28.2388 39.2537 28.2022C39.3634 28.1657 39.4823 28.1565 39.592 28.1657C39.7109 28.1748 39.8206 28.2022 39.9212 28.2388Z" fill="#000001" style="fill:#000001;fill:color(display-p3 0.0000 0.0000 0.0039);fill-opacity:1;"/>
<path d="M39.1349 28.3395C39.1349 28.3395 39.6011 28.2846 39.5006 28.7052C39.5006 28.7052 39.0434 28.8698 38.8423 28.7144C38.8514 28.7144 38.9246 28.3578 39.1349 28.3395Z" fill="#000001" style="fill:#000001;fill:color(display-p3 0.0000 0.0000 0.0039);fill-opacity:1;"/>
<path d="M39.72 28.8605C39.6926 28.8605 39.6651 28.8514 39.6377 28.8422C39.6194 28.8422 39.6103 28.8331 39.6011 28.8148C39.592 28.8057 39.592 28.7874 39.592 28.7782C39.6011 28.7508 39.6011 28.7234 39.6011 28.6959C39.6286 28.6777 39.6651 28.6685 39.6926 28.6777C39.72 28.6868 39.7383 28.6959 39.7474 28.7142C39.7565 28.7325 39.7657 28.7599 39.7566 28.7782C39.7566 28.8148 39.7474 28.8422 39.72 28.8605Z" fill="#000001" style="fill:#000001;fill:color(display-p3 0.0000 0.0000 0.0039);fill-opacity:1;"/>
<path d="M39.9394 28.7782C39.912 28.7782 39.8846 28.7691 39.8571 28.76C39.8389 28.7508 39.8297 28.7508 39.8206 28.7325C39.8114 28.7234 39.8114 28.7051 39.8206 28.696C39.8206 28.6777 39.8297 28.6594 39.8297 28.6137C39.8571 28.5954 39.8937 28.5862 39.9211 28.5954C39.9486 28.6045 39.9669 28.6137 39.976 28.632C39.9851 28.6502 39.9943 28.6777 39.9851 28.696C39.976 28.7325 39.9669 28.76 39.9394 28.7782Z" fill="#000001" style="fill:#000001;fill:color(display-p3 0.0000 0.0000 0.0039);fill-opacity:1;"/>
<path d="M45.2057 30.4241C45.2057 30.4241 45.8457 30.0401 46.7052 30.7076C47.5646 31.375 49.0366 33.5327 49.0366 33.5327C49.0366 33.5327 48.168 34.9041 47.2812 34.6938C47.2812 34.6938 44.5383 31.5396 45.2057 30.4241Z" fill="#000001" style="fill:#000001;fill:color(display-p3 0.0000 0.0000 0.0039);fill-opacity:1;"/>
<path d="M40.1954 26.4104C40.3326 26.6481 40.488 26.8767 40.6617 27.0961C40.744 27.1967 40.8446 27.2698 40.9543 27.3247C41 27.343 41.0549 27.3521 41.1006 27.3338C41.128 27.3247 41.1554 27.3155 41.1737 27.2973C41.2011 27.279 41.2286 27.2698 41.256 27.2424C41.3017 27.2058 41.3474 27.1601 41.3566 27.1327C41.3657 27.1053 41.3566 27.1144 41.3566 27.1053C41.3566 27.0961 41.3383 27.0961 41.3474 27.0961C41.3566 27.0961 41.3566 27.0961 41.3566 27.087C41.3566 27.0778 41.3657 27.0687 41.3657 27.0687C41.3657 27.0687 41.3657 27.0687 41.3657 27.0595V27.0778C41.3657 27.1053 41.3657 27.1418 41.3657 27.1693C41.3749 27.2333 41.384 27.2973 41.4023 27.3613C41.4297 27.4801 41.512 27.5898 41.6217 27.6538C41.7406 27.7087 41.8869 27.727 42.0149 27.6995C41.8777 27.7635 41.7314 27.7818 41.5851 27.7361C41.512 27.7087 41.448 27.663 41.3931 27.6081C41.3383 27.5533 41.3017 27.4801 41.2743 27.4161C41.2469 27.343 41.2194 27.2698 41.2103 27.1967C41.2011 27.1601 41.2011 27.1235 41.2011 27.0778V27.0413V27.023C41.2011 27.0138 41.2011 27.0047 41.2103 26.9955C41.2194 26.9773 41.2377 26.9498 41.256 26.9407C41.2743 26.9315 41.2926 26.9224 41.32 26.9133C41.384 26.9041 41.448 26.9315 41.4937 26.9864C41.5303 27.0321 41.5486 27.0961 41.5303 27.1601C41.5029 27.2515 41.448 27.3247 41.3657 27.3704C41.3383 27.3978 41.3017 27.4161 41.2651 27.4344C41.2286 27.4527 41.192 27.471 41.1463 27.4801C41.0549 27.4984 40.9634 27.4984 40.8811 27.4618C40.744 27.3887 40.6251 27.2881 40.5429 27.1601C40.3874 26.9407 40.2686 26.6847 40.1954 26.4104Z" fill="#A04040" style="fill:#A04040;fill:color(display-p3 0.6275 0.2510 0.2510);fill-opacity:1;"/>
<path d="M44.008 28.0561C43.6423 27.9555 43.304 27.7543 43.0572 27.4618C42.9292 27.3063 42.8469 27.1326 42.8012 26.9315C42.792 26.8766 42.7829 26.8309 42.7829 26.7761C42.7829 26.7486 42.7829 26.7121 42.792 26.6846C42.8012 26.6389 42.8378 26.5932 42.8835 26.5749C42.9292 26.5566 42.9749 26.5658 43.0206 26.5841C43.048 26.6023 43.0755 26.6206 43.1029 26.6389C43.1486 26.6846 43.1852 26.7486 43.1943 26.8126C43.2035 26.8583 43.1852 26.9041 43.1578 26.9406C43.1486 26.9498 43.1395 26.9589 43.1395 26.9681L43.1212 26.9772C43.112 26.9863 43.1029 26.9955 43.0846 27.0046C43.0389 27.0412 42.984 27.0595 42.9292 27.0778C42.8103 27.1052 42.6915 27.0869 42.5909 27.0229C42.5086 26.9589 42.4355 26.8858 42.3806 26.7852C42.3532 26.7395 42.3349 26.6938 42.3166 26.6572C42.2983 26.6115 42.28 26.5658 42.2709 26.5201C42.216 26.3555 42.1246 26.2001 41.9966 26.0812C41.8595 25.9532 41.704 25.8709 41.5212 25.8252C41.7132 25.8343 41.896 25.8983 42.0515 26.0172C42.2069 26.1361 42.3349 26.2915 42.408 26.4743C42.4446 26.5566 42.4812 26.6298 42.5269 26.7121C42.5635 26.7852 42.6275 26.8401 42.6915 26.8858C42.7463 26.9223 42.8195 26.9315 42.8835 26.9132C42.92 26.9041 42.9475 26.8858 42.9749 26.8675C42.984 26.8583 42.9932 26.8583 42.9932 26.8492L43.0023 26.8401C42.9932 26.8126 42.984 26.7943 42.9657 26.7761C42.9566 26.7669 42.9475 26.7578 42.9383 26.7578C42.9292 26.7486 42.9292 26.7578 42.9383 26.7486C42.9475 26.7395 42.9475 26.7303 42.9475 26.7395C42.9475 26.7578 42.9475 26.7669 42.9475 26.7852C42.9475 26.8218 42.9566 26.8675 42.9566 26.9041C42.984 27.0778 43.0572 27.2423 43.1578 27.3795C43.3863 27.6629 43.6789 27.9006 44.008 28.0561Z" fill="#A04040" style="fill:#A04040;fill:color(display-p3 0.6275 0.2510 0.2510);fill-opacity:1;"/>
<path d="M45.2057 30.4241C45.416 30.4332 45.6355 30.4606 45.8366 30.5155C46.0469 30.5612 46.248 30.6526 46.44 30.7624C46.5406 30.8264 46.6229 30.8995 46.696 30.9909C46.7326 31.0366 46.76 31.0915 46.7875 31.1372C46.8057 31.1921 46.824 31.2469 46.8423 31.3018C46.8972 31.5029 46.952 31.7132 47.0252 31.8961C47.0617 31.9875 47.1075 32.0789 47.1532 32.1612C47.208 32.2435 47.272 32.3166 47.3452 32.3715C47.4183 32.4355 47.5098 32.4812 47.6012 32.5269L47.7475 32.5818C47.8023 32.6001 47.848 32.6275 47.9029 32.6458C48.0949 32.7464 48.2778 32.8835 48.4149 33.0481C48.488 33.1304 48.552 33.2218 48.5978 33.3224C48.6252 33.3681 48.6435 33.4229 48.6526 33.4778C48.6526 33.5052 48.6526 33.5326 48.6526 33.5601C48.6526 33.5875 48.6343 33.6149 48.6069 33.6241C48.6343 33.6149 48.6435 33.5875 48.6435 33.5601C48.6435 33.5326 48.6343 33.5052 48.6252 33.4869C48.6069 33.4412 48.5795 33.3955 48.552 33.3498C48.4972 33.2675 48.424 33.1852 48.3509 33.1121C48.2046 32.9658 48.0309 32.8561 47.848 32.7738C47.8023 32.7555 47.7566 32.7372 47.7109 32.7189C47.6652 32.7006 47.6103 32.6824 47.5555 32.6641C47.4549 32.6184 47.3543 32.5726 47.2629 32.4995C47.1715 32.4264 47.0892 32.3441 47.0252 32.2526C46.9612 32.1612 46.9155 32.0606 46.8698 31.9509C46.7966 31.7498 46.7417 31.5395 46.696 31.3292C46.6869 31.2835 46.6777 31.2378 46.6595 31.1921C46.6412 31.1464 46.6229 31.1098 46.5955 31.0732C46.5406 30.9909 46.4675 30.9269 46.3943 30.8629C46.2297 30.7441 46.0469 30.6526 45.8457 30.5795C45.6172 30.5338 45.416 30.4698 45.2057 30.4241Z" fill="#A04040" style="fill:#A04040;fill:color(display-p3 0.6275 0.2510 0.2510);fill-opacity:1;"/>
<path d="M45.8732 31.5576C46.0377 31.6673 46.1749 31.8228 46.2572 31.9965C46.3029 32.0879 46.3486 32.1793 46.376 32.2708L46.4217 32.4079C46.44 32.4536 46.4583 32.4902 46.4857 32.5268C46.5863 32.6822 46.696 32.8285 46.8332 32.9565C46.9612 33.0936 47.1075 33.2125 47.2629 33.313C47.336 33.3588 47.4092 33.4045 47.4915 33.4228C47.5006 33.4228 47.5097 33.4228 47.5189 33.4228C47.5189 33.4228 47.5097 33.4228 47.5097 33.4319C47.5097 33.4045 47.5006 33.3679 47.4915 33.3405C47.4823 33.313 47.464 33.2856 47.4366 33.2673C47.4183 33.2582 47.3909 33.249 47.3635 33.2582C47.336 33.2673 47.3177 33.2856 47.3086 33.313C47.2995 33.3313 47.2995 33.3405 47.2903 33.3588C47.2903 33.377 47.2903 33.3953 47.2903 33.4136C47.2903 33.4319 47.2903 33.4502 47.2995 33.4685L47.3177 33.5233C47.336 33.5599 47.3635 33.6056 47.3817 33.6422C47.4366 33.7245 47.4915 33.7885 47.5555 33.8616C47.6926 33.9988 47.8572 34.0993 48.0309 34.1633C47.8389 34.1359 47.6469 34.0536 47.4915 33.9256C47.4092 33.8616 47.336 33.7976 47.2812 33.7153C47.208 33.633 47.1623 33.5325 47.1349 33.4319C47.1349 33.4045 47.1257 33.3679 47.1349 33.3405C47.1349 33.313 47.144 33.2765 47.1532 33.249C47.1806 33.185 47.2263 33.1302 47.2995 33.1119C47.3726 33.0845 47.4457 33.0936 47.5097 33.1302C47.5646 33.1668 47.6103 33.2216 47.6377 33.2765C47.6469 33.3039 47.656 33.3313 47.6652 33.3588C47.6652 33.377 47.6743 33.3862 47.6743 33.4045C47.6743 33.4136 47.6743 33.4228 47.6743 33.4319C47.6743 33.441 47.6743 33.4502 47.6743 33.4685C47.6743 33.4959 47.656 33.5233 47.6377 33.5416C47.6286 33.5508 47.6195 33.5599 47.6012 33.569C47.592 33.5782 47.5737 33.5782 47.5646 33.5873C47.528 33.5965 47.4915 33.5965 47.4457 33.5873C47.3909 33.5782 47.336 33.5599 47.2903 33.5325C47.2446 33.505 47.1989 33.4868 47.1532 33.4593C46.9886 33.3496 46.8332 33.2216 46.696 33.0753C46.5589 32.929 46.44 32.7645 46.3486 32.5908C46.3303 32.545 46.3029 32.4993 46.2937 32.4536L46.2755 32.3805L46.2572 32.3073C46.2389 32.2159 46.2023 32.1245 46.1657 32.0422C46.1109 31.841 46.0103 31.6856 45.8732 31.5576Z" fill="#A04040" style="fill:#A04040;fill:color(display-p3 0.6275 0.2510 0.2510);fill-opacity:1;"/>
<path d="M40.0217 26.3372C39.9852 26.4926 39.9577 26.6572 39.9394 26.8217C39.9303 26.8949 39.9394 26.968 39.9486 27.0412C39.9669 27.1234 39.9943 27.2057 40.0217 27.2789C39.9303 27.2423 39.8572 27.1783 39.8114 27.0869C39.7657 26.9954 39.7474 26.904 39.7474 26.8034C39.7566 26.7029 39.784 26.6114 39.8297 26.5292C39.8846 26.456 39.9486 26.3829 40.0217 26.3372Z" fill="#000001" style="fill:#000001;fill:color(display-p3 0.0000 0.0000 0.0039);fill-opacity:1;"/>
<path d="M45.5074 30.3965C45.8457 30.4148 46.184 30.4879 46.5132 30.6068C46.8423 30.7165 47.1532 30.8811 47.4274 31.0913C47.5646 31.2011 47.6926 31.3199 47.8023 31.4571L47.9669 31.6491C48.0217 31.7131 48.0766 31.7771 48.1314 31.8319C48.2412 31.9508 48.3692 32.0513 48.5154 32.1336C48.5886 32.1702 48.6709 32.1976 48.744 32.2433C48.8172 32.2982 48.872 32.3622 48.9086 32.4445C48.8629 32.3805 48.7989 32.3256 48.7257 32.2891C48.6526 32.2616 48.5703 32.2433 48.488 32.2159C48.3234 32.1519 48.1772 32.0513 48.04 31.9325C47.912 31.8228 47.784 31.6948 47.6743 31.5668C47.5646 31.4479 47.4457 31.3291 47.3177 31.2376L47.2172 31.1645L47.1166 31.0913C47.0526 31.0456 46.9794 31.0091 46.9063 30.9633C46.8332 30.9176 46.76 30.8811 46.6869 30.8445C46.6137 30.8079 46.5406 30.7713 46.4583 30.7348C46.1474 30.6068 45.8366 30.4879 45.5074 30.3965Z" fill="#000001" style="fill:#000001;fill:color(display-p3 0.0000 0.0000 0.0039);fill-opacity:1;"/>
<path d="M46.9794 34.6755C46.8148 34.6298 46.6594 34.5567 46.5223 34.4561C46.376 34.3555 46.2663 34.2001 46.2023 34.0355C46.184 33.9898 46.1748 33.9441 46.1748 33.8984C46.1657 33.8527 46.1657 33.8161 46.1565 33.7795C46.1474 33.6973 46.1291 33.6241 46.1017 33.551C46.0468 33.4047 45.9737 33.2584 45.8823 33.1395C45.8365 33.0755 45.7817 33.0115 45.7268 32.9475C45.672 32.8835 45.608 32.8195 45.5623 32.7464C45.4708 32.6001 45.3885 32.4538 45.3245 32.2893C45.2605 32.1338 45.2057 31.9693 45.1783 31.7955C45.16 31.7133 45.16 31.6218 45.1783 31.5304C45.1874 31.4847 45.2057 31.4481 45.2423 31.4115C45.2697 31.3841 45.3154 31.3658 45.3611 31.3567C45.2788 31.3841 45.2331 31.4573 45.2331 31.5304C45.2331 31.6127 45.2423 31.6858 45.2697 31.7681C45.3154 31.9235 45.3794 32.079 45.4526 32.2253C45.5257 32.3715 45.608 32.5087 45.6994 32.6458C45.7451 32.7007 45.8 32.7647 45.864 32.8287C45.928 32.8927 45.9737 32.9567 46.0285 33.0298C46.1931 33.2401 46.2937 33.4961 46.3211 33.7613C46.3211 33.807 46.3211 33.8527 46.3303 33.8893C46.3303 33.9258 46.3394 33.9624 46.3485 33.999C46.3943 34.1453 46.4766 34.2824 46.5954 34.383C46.696 34.5018 46.8331 34.5933 46.9794 34.6755Z" fill="#000001" style="fill:#000001;fill:color(display-p3 0.0000 0.0000 0.0039);fill-opacity:1;"/>
<path d="M45.1051 30.1223C45.0777 30.36 45.032 30.5795 45.0137 30.7989C44.9954 30.9086 44.9954 31.0183 44.9954 31.128C44.9954 31.2377 45.0137 31.3566 45.032 31.4663C44.9406 31.384 44.8766 31.2743 44.8491 31.1463C44.8217 31.0275 44.8126 30.8995 44.8309 30.7806C44.8491 30.6617 44.8766 30.5429 44.9223 30.4332C44.968 30.3235 45.032 30.2137 45.1051 30.1223Z" fill="#2167A6" style="fill:#2167A6;fill:color(display-p3 0.1303 0.4057 0.6516);fill-opacity:1;"/>
<path d="M41.7406 30.2778C41.8046 30.3875 41.8777 30.4973 41.9509 30.5978C42.0149 30.6984 42.0972 30.7807 42.1886 30.8538C42.2069 30.863 42.2252 30.8721 42.2435 30.8721C42.2617 30.8721 42.2709 30.863 42.2892 30.8538C42.2983 30.8447 42.3257 30.8173 42.3532 30.799L42.4263 30.735C42.472 30.6893 42.5269 30.6435 42.5817 30.607C42.6457 30.5613 42.7189 30.5338 42.8012 30.5247C42.8835 30.5155 42.9566 30.5338 43.0297 30.5613C43.0937 30.5887 43.1577 30.6253 43.2126 30.6618C43.2675 30.6984 43.3132 30.7441 43.368 30.7898C43.4046 30.8264 43.4503 30.863 43.496 30.8904C43.5326 30.9178 43.5783 30.9178 43.6149 30.8995C43.6606 30.8721 43.688 30.8264 43.7063 30.7715C43.752 30.6527 43.7795 30.5338 43.7977 30.4058C43.816 30.5338 43.816 30.671 43.7886 30.799C43.7703 30.8721 43.7337 30.9361 43.6789 30.991C43.6057 31.0458 43.5143 31.055 43.432 31.0184C43.368 30.991 43.304 30.9544 43.2492 30.9087C43.2035 30.8721 43.1577 30.8355 43.1029 30.799C43.0206 30.735 42.92 30.6984 42.8103 30.6984C42.7006 30.7258 42.6092 30.7807 42.536 30.863L42.4629 30.9087C42.4355 30.9361 42.408 30.9544 42.3806 30.9727C42.3349 31.0001 42.2892 31.0093 42.2435 31.0093C42.1977 31.0001 42.1612 30.991 42.1246 30.9635C42.0149 30.8721 41.9326 30.7624 41.8777 30.6344C41.8137 30.5155 41.768 30.3967 41.7406 30.2778Z" fill="#A04040" style="fill:#A04040;fill:color(display-p3 0.6275 0.2510 0.2510);fill-opacity:1;"/>
<path d="M42.1703 28.4765C42.3989 28.4583 42.6366 28.4948 42.856 28.5771C42.9749 28.6137 43.0754 28.6777 43.176 28.7691C43.2034 28.7874 43.2217 28.8148 43.24 28.8423C43.2583 28.8697 43.2766 28.8971 43.2949 28.9245L43.3223 28.9703C43.3314 28.9885 43.3314 29.0068 43.3314 29.016L43.3497 29.1074C43.3771 29.2994 43.5326 29.4457 43.7337 29.528C43.8343 29.5645 43.9349 29.592 44.0446 29.6011C44.1543 29.6103 44.264 29.6011 44.3646 29.5554C44.2731 29.6377 44.1634 29.6834 44.0446 29.6925C43.9257 29.7017 43.8069 29.6925 43.688 29.6651C43.5691 29.6285 43.4503 29.5737 43.3589 29.4914C43.2583 29.4 43.1943 29.2811 43.176 29.1531C43.1669 29.1165 43.1669 29.0983 43.1577 29.08C43.1486 29.0617 43.1577 29.0617 43.1486 29.0434L43.1303 29.016C43.1211 28.9977 43.112 28.9703 43.0937 28.9611C43.0846 28.9428 43.0663 28.9245 43.048 28.9063C42.9749 28.8331 42.8926 28.7691 42.792 28.7234C42.6 28.6137 42.3806 28.5405 42.1703 28.4765Z" fill="#A04040" style="fill:#A04040;fill:color(display-p3 0.6275 0.2510 0.2510);fill-opacity:1;"/>
<path d="M40.2595 31.9053C40.2595 31.9053 42.024 39.9693 42.0972 40.2344C42.1703 40.4995 42.5909 41.4047 42.6915 41.2675C42.792 41.1304 42.8286 40.1247 42.8286 40.1247C42.8286 40.1247 41.1006 31.7681 40.9635 31.695C40.8263 31.6218 40.36 31.5395 40.2595 31.9053Z" fill="#2167A6" style="fill:#2167A6;fill:color(display-p3 0.1303 0.4057 0.6516);fill-opacity:1;"/>
<path d="M33.9875 30.1223C33.9875 30.1223 31.6286 32.9383 31.6286 33.0663C31.6286 33.1943 34.6183 32.5177 34.6183 32.5177L33.9875 30.1223Z" fill="#000001" style="fill:#000001;fill:color(display-p3 0.0000 0.0000 0.0039);fill-opacity:1;"/>
<path d="M45.7909 37.7109C45.7909 37.7109 44.3554 35.0503 43.2583 34.7486C42.1612 34.4469 40.8446 34.5292 40.5703 34.8309C40.296 35.1326 40.0766 36.2023 40.2412 36.4492C40.2412 36.4492 39.8297 36.8881 39.9943 37.4366C40.0949 37.7566 40.3234 38.0309 40.6252 38.1772C40.552 38.3783 40.5886 38.5978 40.7349 38.7532C40.9817 39.0275 41.8046 40.0149 41.9692 39.5486C42.1337 39.0823 41.7772 38.0675 41.7772 38.0675L43.6972 39.7681L45.7909 37.7109Z" fill="#A04040" style="fill:#A04040;fill:color(display-p3 0.6275 0.2510 0.2510);fill-opacity:1;"/>
<path d="M41.6126 37.1257L41.1737 37.5829C41.0274 37.7292 40.8994 37.8846 40.7897 38.0492C40.7348 38.1223 40.7074 38.2046 40.7074 38.296C40.7074 38.3874 40.7257 38.4789 40.7623 38.5703C40.8445 38.7623 40.9451 38.936 41.0731 39.1097C40.8903 38.9909 40.744 38.8263 40.6343 38.6343C40.5794 38.5337 40.5428 38.4149 40.5337 38.3052C40.5337 38.1863 40.5703 38.0583 40.6343 37.9577C40.7531 37.7749 40.9085 37.6194 41.0823 37.4823C41.2377 37.3452 41.4206 37.2263 41.6126 37.1257Z" fill="#000001" style="fill:#000001;fill:color(display-p3 0.0000 0.0000 0.0039);fill-opacity:1;"/>
<path d="M42.4263 35.5166C42.1246 35.6172 41.8228 35.7269 41.5303 35.8366C41.384 35.8915 41.2377 35.9555 41.0914 36.0195C41.0183 36.0469 40.9543 36.0835 40.8811 36.12C40.808 36.1566 40.744 36.1932 40.68 36.2297C40.552 36.3029 40.424 36.3943 40.3143 36.4949C39.9577 36.8057 39.8663 37.3269 40.0949 37.7383C39.9943 37.6103 39.9211 37.464 39.8937 37.2995C39.8571 37.1349 39.8663 36.9612 39.9211 36.7966C39.976 36.632 40.0766 36.4857 40.1954 36.3669C40.2594 36.312 40.3234 36.2572 40.3874 36.2023C40.4514 36.1566 40.5246 36.1109 40.5977 36.0652C40.8811 35.9097 41.1829 35.7909 41.4937 35.6995C41.8046 35.6172 42.1154 35.5532 42.4263 35.5166Z" fill="#000001" style="fill:#000001;fill:color(display-p3 0.0000 0.0000 0.0039);fill-opacity:1;"/>
<path d="M43.3497 40.6548C43.7154 41.2948 44.1086 41.9165 44.5474 42.5199C44.7669 42.8125 44.9863 43.1051 45.224 43.3885C45.4617 43.6719 45.7086 43.9371 45.9737 44.1931C46.4949 44.7051 47.0892 45.1531 47.7566 45.4274C48.4332 45.7199 49.192 45.7474 49.896 45.5279C49.5486 45.6742 49.1829 45.7565 48.808 45.7656C48.4332 45.7656 48.0583 45.7016 47.7017 45.5645C47.3543 45.4274 47.016 45.2536 46.7052 45.0434C46.3943 44.8331 46.1109 44.5862 45.8366 44.3302C45.3063 43.8091 44.8309 43.2331 44.4194 42.6114C44.0172 41.9896 43.6606 41.3314 43.3497 40.6548Z" fill="#000001" style="fill:#000001;fill:color(display-p3 0.0000 0.0000 0.0039);fill-opacity:1;"/>
<path d="M40.5155 38.5793C40.296 39.2742 40.0675 39.9599 39.8298 40.6548C39.592 41.3405 39.3543 42.0262 39.1075 42.7119L38.376 44.7691C38.2572 45.1073 38.1383 45.4548 38.0195 45.8022C37.9646 45.9759 37.9006 46.1496 37.8457 46.3142L37.7635 46.5793L37.6995 46.8445L37.736 46.5702L37.8 46.3051C37.8366 46.1222 37.8915 45.9485 37.9372 45.7748C38.0377 45.4273 38.1383 45.0708 38.248 44.7233C38.3577 44.3759 38.4766 44.0285 38.5863 43.6811L38.9429 42.6479C39.1897 41.9622 39.4366 41.2765 39.7017 40.5999C39.9669 39.9233 40.232 39.2468 40.5155 38.5793Z" fill="#000001" style="fill:#000001;fill:color(display-p3 0.0000 0.0000 0.0039);fill-opacity:1;"/>
<path d="M37.9006 31.5942L31.6286 33.0662C31.6286 33.0662 33.5212 42.4468 33.7772 42.5291C34.0332 42.6114 40.0492 41.3497 40.0492 40.9748C40.0492 40.6 37.9006 31.5942 37.9006 31.5942Z" fill="#2167A6" style="fill:#2167A6;fill:color(display-p3 0.1303 0.4057 0.6516);fill-opacity:1;"/>
<path d="M32.9177 38.9909V38.9727L32.6891 37.8664C32.6891 37.8664 33.9143 37.8481 34.3989 37.7292C34.8834 37.6104 34.216 36.8515 34.216 36.8515C34.216 36.8515 34.8194 37.1532 35.0206 36.8332C35.2217 36.5132 34.3074 36.0469 34.3074 36.0469C34.3074 36.0469 35.1394 36.2572 35.1577 36.0286C35.176 35.8001 34.6183 35.3246 33.5943 35.0961C33.256 35.0229 32.0766 34.9589 32.0766 34.9589L31.8937 34.2549C31.4914 34.0538 31.1897 35.5989 31.1897 36.4401C31.1897 36.9978 31.0983 38.1224 31.3451 38.7441L32.9177 38.9909Z" fill="#A04040" style="fill:#A04040;fill:color(display-p3 0.6275 0.2510 0.2510);fill-opacity:1;"/>
<path d="M32.9908 36.751C33.1554 36.7053 33.32 36.687 33.4937 36.6961C33.6583 36.7053 33.832 36.7327 33.9874 36.7784C34.1611 36.8241 34.3166 36.9064 34.4446 37.0253C34.5086 37.0893 34.5634 37.1624 34.5817 37.2538C34.6091 37.3361 34.6 37.4276 34.5634 37.5098C34.5726 37.3544 34.4903 37.2081 34.3623 37.1258C34.2343 37.0436 34.088 36.9887 33.9417 36.9521C33.7863 36.9156 33.6308 36.879 33.4754 36.8516C33.32 36.8241 33.1554 36.7876 32.9908 36.751Z" fill="#000001" style="fill:#000001;fill:color(display-p3 0.0000 0.0000 0.0039);fill-opacity:1;"/>
<path d="M33.0274 36.1017C33.3291 35.8366 33.7405 35.7451 34.1154 35.864C34.2983 35.928 34.472 36.0194 34.6183 36.1474C34.7645 36.2663 34.8925 36.4126 34.984 36.5771C34.8377 36.4674 34.6914 36.3577 34.536 36.2571C34.3897 36.1657 34.2251 36.0926 34.0605 36.0377C33.896 35.9828 33.7223 35.9646 33.5485 35.9828C33.3748 35.992 33.192 36.0377 33.0274 36.1017Z" fill="#000001" style="fill:#000001;fill:color(display-p3 0.0000 0.0000 0.0039);fill-opacity:1;"/>
<path d="M35.4503 25.8618C35.5234 25.0481 35.5234 24.2252 35.4503 23.4115C35.3863 22.5978 35.2217 21.7932 34.9566 21.0252C34.6914 20.2572 34.2891 19.5258 33.6949 18.9772C33.3931 18.7029 33.064 18.4652 32.7074 18.2824C32.36 18.0904 31.9669 17.9624 31.5737 17.9166C31.1806 17.8801 30.7783 17.9532 30.4217 18.1361C30.248 18.2275 30.0926 18.3464 29.9554 18.4926C29.8823 18.5658 29.8274 18.6389 29.7726 18.7212C29.7451 18.7578 29.7269 18.8035 29.7086 18.8401C29.6994 18.8584 29.6994 18.8766 29.6994 18.8949V18.9041C29.6994 18.8949 29.6903 18.8949 29.6903 18.8858C29.6811 18.8766 29.672 18.8858 29.6811 18.8858H29.7177C29.7451 18.8858 29.7634 18.8766 29.7909 18.8766C29.8366 18.8675 29.8823 18.8584 29.928 18.8401C30.0194 18.8035 30.0926 18.7578 30.1657 18.6938C30.3029 18.5566 30.3943 18.3829 30.4309 18.2001C30.504 17.8069 30.4583 17.4046 30.312 17.0389C30.1749 16.6641 29.9554 16.3258 29.6629 16.0515C29.5166 15.9144 29.3611 15.8046 29.1874 15.7041C29.096 15.6584 29.0046 15.6218 28.9131 15.5852C28.8217 15.5486 28.7211 15.5212 28.6297 15.4938C27.8526 15.2561 27.0389 15.1829 26.2343 15.2744C25.4297 15.3749 24.6526 15.6218 23.9303 15.9966C23.208 16.3715 22.5497 16.8561 21.9646 17.4229C21.3794 17.9898 20.8583 18.6298 20.4377 19.3246C20.008 20.0195 19.688 20.7692 19.4869 21.5646C19.3954 21.9578 19.3314 22.3692 19.2949 22.7715C19.2491 23.1738 19.2766 23.5852 19.3497 23.9875C19.3863 24.1886 19.4777 24.3715 19.5966 24.5269C19.6606 24.6001 19.7429 24.6641 19.8343 24.6915C19.9257 24.7189 20.0263 24.7098 20.1086 24.6641C20.2823 24.5635 20.4103 24.3989 20.4743 24.2161C20.5474 24.0332 20.5931 23.8321 20.6114 23.6309C20.6389 23.2286 20.4926 22.8264 20.2914 22.4881C20.0811 22.1406 19.7977 21.8481 19.4686 21.6104C19.304 21.4915 19.1211 21.4092 18.9291 21.3452C18.7371 21.2812 18.536 21.2812 18.3531 21.3269C18.1703 21.3818 18.0057 21.5098 17.9051 21.6744C17.8046 21.8389 17.7223 22.0309 17.6857 22.2229C17.6491 22.4241 17.6217 22.6252 17.6034 22.8264C17.5851 23.0275 17.576 23.2286 17.576 23.4389C17.576 23.8412 17.6217 24.2526 17.7131 24.6458C17.7589 24.8378 17.832 25.0298 17.9143 25.2126C17.9966 25.3955 18.1154 25.5509 18.2526 25.6972C18.3897 25.8344 18.5634 25.9258 18.7554 25.9532C18.9474 25.9715 19.1394 25.9349 19.3131 25.8435C19.4869 25.7521 19.6514 25.6332 19.7886 25.4961C19.9349 25.3589 20.0811 25.2126 20.2091 25.0572C20.4743 24.7464 20.712 24.4172 20.9223 24.0698C21.1326 23.7315 21.3154 23.3658 21.4526 22.9818C21.5166 22.7989 21.5623 22.6069 21.5806 22.4058C21.5897 22.2138 21.5623 22.0218 21.4251 21.9121C21.288 21.8024 21.096 21.7749 20.904 21.7841C20.712 21.8024 20.5109 21.8481 20.328 21.9121C19.9531 22.0584 19.6057 22.2595 19.2857 22.4972C18.9657 22.7349 18.6549 23.0092 18.3806 23.3018C18.0971 23.5944 17.8503 23.9144 17.6309 24.2526C17.5211 24.4172 17.4297 24.6001 17.3474 24.7829C17.2651 24.9566 17.2194 25.1486 17.192 25.3406C17.1646 25.5144 17.2194 25.6972 17.3383 25.8344C17.4754 25.9532 17.6583 26.0172 17.8411 26.0264C18.2434 26.0629 18.6549 26.0812 19.0571 26.0812C19.4594 26.0812 19.8617 26.0355 20.2549 25.9441C20.4469 25.8984 20.6297 25.8252 20.7943 25.7246C20.8674 25.6789 20.9314 25.6149 20.9863 25.5418C21.032 25.4686 21.0503 25.3864 21.0503 25.3041C21.0503 25.2858 21.0411 25.2584 21.0411 25.2401C21.032 25.2218 21.032 25.2035 21.0229 25.1852C21.0046 25.1486 20.9771 25.1029 20.9497 25.0664C20.8857 24.9932 20.8217 24.9109 20.7577 24.8469C20.6206 24.7006 20.4651 24.5726 20.3097 24.4446C19.6789 23.9326 19.0114 23.4664 18.2983 23.0732C18.1246 22.9726 17.9417 22.8812 17.7589 22.7989C17.576 22.7166 17.3931 22.6526 17.2011 22.6069C17.1097 22.5886 17.0274 22.5795 16.936 22.5978C16.8629 22.6161 16.8171 22.6801 16.8263 22.7532C16.8263 22.8446 16.8446 22.9361 16.8811 23.0275L16.9634 23.3201C17.0183 23.5121 17.0823 23.7132 17.1463 23.8961C17.2103 24.0881 17.3017 24.2618 17.4023 24.4355C17.4937 24.6001 17.6491 24.7189 17.832 24.7738C18.024 24.8012 18.216 24.7829 18.3897 24.7006C18.5726 24.6275 18.7463 24.5269 18.8926 24.3898C19.048 24.2618 19.1943 24.1155 19.3314 23.9692C19.6057 23.6675 19.8617 23.3566 20.0903 23.0184C20.328 22.6892 20.5291 22.3326 20.6846 21.9578C20.7211 21.8664 20.7486 21.7658 20.776 21.6744C20.8034 21.5829 20.8126 21.4824 20.7943 21.3909C20.7851 21.2995 20.7303 21.2264 20.648 21.1989C20.5566 21.1715 20.456 21.1715 20.3646 21.1989C20.1726 21.2446 19.9897 21.3361 19.8434 21.4641C19.688 21.5921 19.5417 21.7384 19.4229 21.8938C19.176 22.2138 18.9931 22.5795 18.8743 22.9726C18.7463 23.3566 18.7097 23.7681 18.7463 24.1795C18.792 24.5818 18.9383 24.9749 19.176 25.3041L19.1577 25.3132C18.9109 24.9841 18.7554 24.5909 18.7006 24.1795C18.6549 23.7681 18.6914 23.3475 18.8011 22.9544C18.92 22.5521 19.1029 22.1772 19.3497 21.8481C19.4686 21.6744 19.6149 21.5281 19.7794 21.3909C19.944 21.2538 20.136 21.1532 20.3371 21.0984C20.4469 21.0709 20.5566 21.0709 20.6663 21.0984C20.7211 21.1166 20.776 21.1532 20.8126 21.1989C20.8491 21.2446 20.8674 21.2995 20.8766 21.3635C20.8857 21.4732 20.8857 21.5829 20.8583 21.6835C20.8309 21.7841 20.8034 21.8846 20.7669 21.9852C20.6114 22.3692 20.4103 22.7349 20.1726 23.0732C19.944 23.4115 19.688 23.7406 19.4046 24.0424C19.2674 24.1978 19.112 24.3441 18.9566 24.4721C18.8743 24.5452 18.792 24.6001 18.7006 24.6641C18.6091 24.7189 18.5177 24.7738 18.4171 24.8104C18.216 24.9018 17.9966 24.9292 17.7771 24.8926C17.6674 24.8652 17.5669 24.8104 17.4754 24.7464C17.3931 24.6732 17.32 24.5909 17.256 24.4995C17.1463 24.3258 17.0549 24.1338 16.9817 23.9326C16.9086 23.7406 16.8446 23.5395 16.7897 23.3475L16.7074 23.0549C16.6709 22.9544 16.6526 22.8446 16.6434 22.7349C16.6434 22.6709 16.6617 22.5978 16.6983 22.5429C16.7349 22.4881 16.7989 22.4424 16.8629 22.4241C16.9726 22.3966 17.0914 22.3966 17.2103 22.4241C17.4206 22.4698 17.6217 22.5338 17.8137 22.6252C18.0057 22.7075 18.1886 22.7989 18.3714 22.8995C18.7371 23.1006 19.0846 23.3109 19.4229 23.5486C19.7611 23.7772 20.0994 24.0241 20.4103 24.2892C20.5657 24.4172 20.7211 24.5544 20.8674 24.7098C20.9406 24.7829 21.0137 24.8652 21.0777 24.9475C21.1143 24.9932 21.1417 25.0389 21.1691 25.0938C21.1874 25.1212 21.1966 25.1578 21.2057 25.1852C21.2149 25.2218 21.2149 25.2492 21.2149 25.2766C21.224 25.3955 21.1874 25.5235 21.1234 25.6241C21.0594 25.7246 20.9771 25.8069 20.8766 25.8618C20.6937 25.9806 20.4926 26.0629 20.2823 26.1086C19.88 26.2001 19.4594 26.2549 19.0389 26.2549C18.6274 26.2641 18.216 26.2458 17.8046 26.2092C17.6949 26.2001 17.5851 26.1726 17.4846 26.1361C17.3749 26.0995 17.2743 26.0355 17.192 25.9532C17.1097 25.8709 17.0457 25.7612 17.0183 25.6515C16.9909 25.5418 16.9817 25.4229 16.9909 25.3132C17.0183 25.1029 17.0731 24.8926 17.1646 24.6915C17.2469 24.4995 17.3474 24.3166 17.4663 24.1338C17.6949 23.7864 17.9509 23.4572 18.2343 23.1555C18.5177 22.8538 18.8286 22.5795 19.1669 22.3326C19.5051 22.0766 19.8709 21.8755 20.264 21.7292C20.4651 21.6561 20.6754 21.6104 20.8857 21.5921C20.9954 21.5829 21.1051 21.5921 21.2149 21.6104C21.3337 21.6286 21.4434 21.6835 21.5257 21.7566C21.6171 21.8389 21.672 21.9395 21.6994 22.0584C21.7269 22.1681 21.7269 22.2869 21.7177 22.3966C21.6994 22.6069 21.6537 22.8172 21.5806 23.0184C21.4343 23.4115 21.2514 23.7864 21.032 24.1338C20.8126 24.4812 20.5657 24.8195 20.3006 25.1304C20.1634 25.2858 20.0171 25.4412 19.8617 25.5784C19.7063 25.7246 19.5326 25.8435 19.3497 25.9441C19.1577 26.0446 18.9383 26.0812 18.7189 26.0629C18.4994 26.0264 18.2983 25.9258 18.1429 25.7704C17.9874 25.6241 17.8686 25.4412 17.7771 25.2492C17.6857 25.0572 17.6217 24.8652 17.5669 24.6641C17.4754 24.2618 17.4297 23.8504 17.4389 23.4298C17.4389 23.0184 17.4846 22.6069 17.5577 22.1955C17.5943 21.9852 17.6766 21.7932 17.7863 21.6104C17.9051 21.4275 18.0789 21.2904 18.2891 21.2264C18.4994 21.1715 18.7189 21.1806 18.92 21.2446C19.1211 21.3086 19.304 21.4001 19.4777 21.5189C19.816 21.7566 20.1086 22.0675 20.3189 22.4241C20.5474 22.7806 20.6571 23.1921 20.648 23.6126C20.6297 23.8229 20.584 24.0241 20.5017 24.2161C20.4286 24.4172 20.2823 24.5818 20.0994 24.6915C19.9989 24.7464 19.8891 24.7555 19.7794 24.7189C19.6789 24.6824 19.5874 24.6184 19.5143 24.5361C19.3863 24.3715 19.2949 24.1795 19.2583 23.9692C19.176 23.5669 19.1486 23.1464 19.1943 22.7349C19.2309 22.3235 19.2949 21.9212 19.3863 21.5189C19.4777 21.1166 19.6057 20.7235 19.7703 20.3486C19.9349 19.9738 20.1177 19.6081 20.328 19.2515C20.7486 18.5475 21.2606 17.8984 21.8549 17.3132C22.44 16.7372 23.1074 16.2435 23.8389 15.8504C24.5703 15.4481 25.3657 15.1921 26.1886 15.0915C27.0114 14.9909 27.8526 15.0641 28.648 15.3018C28.7486 15.3292 28.8491 15.3658 28.9406 15.3932C29.0411 15.4298 29.1326 15.4755 29.2331 15.5212C29.416 15.6218 29.5897 15.7406 29.7451 15.8869C30.056 16.1795 30.2846 16.5361 30.4309 16.9384C30.5863 17.3315 30.632 17.7704 30.5497 18.1909C30.504 18.4104 30.4034 18.6115 30.2389 18.7669C30.1566 18.8401 30.056 18.9041 29.9554 18.9406C29.9006 18.9589 29.8457 18.9772 29.7909 18.9864C29.7634 18.9864 29.736 18.9955 29.7086 18.9955H29.672C29.6446 18.9955 29.6171 18.9955 29.5897 18.9772C29.5623 18.9589 29.544 18.9315 29.5349 18.9041C29.5349 18.8858 29.5349 18.8584 29.5349 18.8401C29.5349 18.8126 29.544 18.7761 29.5531 18.7486C29.5714 18.6938 29.5989 18.6481 29.6263 18.5932C29.6811 18.5109 29.7543 18.4286 29.8274 18.3555C29.9737 18.2001 30.1474 18.0721 30.3394 17.9806C30.7143 17.7795 31.144 17.7064 31.5646 17.7429C31.9851 17.7886 32.3874 17.9258 32.7531 18.1269C32.936 18.2275 33.1097 18.3372 33.2834 18.4561C33.4571 18.5749 33.6126 18.7121 33.7589 18.8492C34.3623 19.4252 34.7646 20.1749 35.0297 20.9521C35.2857 21.7384 35.4411 22.5521 35.496 23.3749C35.56 24.1978 35.5417 25.0115 35.4594 25.8344L35.4503 25.8618Z" fill="#2167A6" style="fill:#2167A6;fill:color(display-p3 0.1303 0.4057 0.6516);fill-opacity:1;"/>
</g>
<defs>
<clipPath id="clip0_2846_606">
<rect width="41.3257" height="32" fill="white" style="fill:white;fill-opacity:1;" transform="translate(9 15)"/>
</clipPath>
</defs>
</svg>
