<svg width="28" height="24" viewBox="0 0 28 24" fill="none" xmlns="http://www.w3.org/2000/svg">
<g clip-path="url(#clip0_2856_932)">
<path d="M19.8594 0.28125C17.5051 0.28125 15.4156 1.21055 14 2.80781C12.5844 1.21055 10.4949 0.28125 8.14062 0.28125C6.0901 0.283731 4.12428 1.0994 2.67434 2.54934C1.2244 3.99928 0.408731 5.9651 0.40625 8.01562C0.40625 16.493 12.8059 23.2664 13.3332 23.5512C13.5381 23.6615 13.7672 23.7193 14 23.7193C14.2328 23.7193 14.4619 23.6615 14.6668 23.5512C15.1941 23.2664 27.5938 16.493 27.5938 8.01562C27.5913 5.9651 26.7756 3.99928 25.3257 2.54934C23.8757 1.0994 21.9099 0.283731 19.8594 0.28125ZM19.216 16.9641C17.5839 18.349 15.8392 19.5955 14 20.6906C12.1608 19.5955 10.4161 18.349 8.78398 16.9641C6.24453 14.7855 3.21875 11.4633 3.21875 8.01562C3.21875 6.71026 3.7373 5.45836 4.66033 4.53533C5.58336 3.6123 6.83526 3.09375 8.14062 3.09375C10.2266 3.09375 11.9727 4.19531 12.698 5.96953C12.8036 6.22817 12.9838 6.44951 13.2157 6.60531C13.4476 6.76111 13.7206 6.84431 14 6.84431C14.2794 6.84431 14.5524 6.76111 14.7843 6.60531C15.0162 6.44951 15.1964 6.22817 15.302 5.96953C16.0273 4.19531 17.7734 3.09375 19.8594 3.09375C21.1647 3.09375 22.4166 3.6123 23.3397 4.53533C24.2627 5.45836 24.7812 6.71026 24.7812 8.01562C24.7812 11.4633 21.7555 14.7855 19.216 16.9641Z" fill="white" fill-opacity="0.8" style="fill:white;fill-opacity:0.8;"/>
</g>
<defs>
<clipPath id="clip0_2856_932">
<rect width="28" height="24" fill="white" style="fill:white;fill-opacity:1;"/>
</clipPath>
</defs>
</svg>
