<svg width="61" height="60" viewBox="0 0 61 60" fill="none" xmlns="http://www.w3.org/2000/svg">
<g clip-path="url(#clip0_2876_821)" filter="url(#filter0_d_2876_821)">
<g filter="url(#filter1_d_2876_821)">
<path d="M30.3737 10.5212C27.183 13.2099 25.1141 16.35 23.7679 19.9014C24.4923 20.9733 25.1759 22.0828 25.822 23.2108C27.1481 22.7346 28.5746 22.4745 30.0606 22.4745C31.577 22.4745 33.0318 22.7451 34.381 23.2402C35.15 21.9951 35.9623 20.7659 36.8303 19.5822C35.4962 16.2806 33.4895 13.2347 30.3737 10.5212ZM45.6029 13.2898C41.6402 15.7335 38.5377 19.677 35.8856 23.9075C37.7452 24.8826 39.3359 26.3103 40.5177 28.0442C42.4856 26.1137 44.6046 24.2162 46.9254 22.3146C46.8507 19.5746 46.4339 16.5667 45.6029 13.2898ZM15.6727 13.3836C14.8728 16.6385 14.4491 19.6169 14.3382 22.3244C16.3408 24.046 18.1918 25.7891 19.9151 27.6067C21.0826 26.0384 22.5954 24.7474 24.3402 23.8532C21.9378 19.7163 19.0437 15.8985 15.6727 13.3836ZM11.0445 21.6753C9.58077 30.9399 11.4109 37.7847 14.8848 42.3594C16.7862 44.8632 19.1891 46.6999 21.8477 47.8784C20.0765 44.7971 19.6457 41.295 20.4392 37.9221C20.835 36.24 21.5285 34.5896 22.4972 33.0268C19.2637 28.9015 15.5381 25.3087 11.0444 21.6754L11.0445 21.6753ZM50.2631 21.7151C45.1873 25.6524 41.0722 29.4908 37.4307 33.6009C38.2467 35.1224 38.8075 36.7015 39.1027 38.294C39.703 41.5335 39.1885 44.8223 37.5504 47.7198C40.2803 46.4976 42.8072 44.6339 44.8848 42.1279C48.6982 37.5284 51.0224 30.7514 50.2633 21.7152L50.2631 21.7151ZM30.0606 24.0767C26.3226 24.0767 23.0217 25.9346 21.0091 28.7889C21.8474 29.7186 22.6571 30.6743 23.4372 31.6545C25.0099 29.561 27.1017 27.669 29.6577 26.1305L30.0877 25.8716L30.5037 26.1533C33.0795 27.8979 35.1135 29.9539 36.5782 32.1715C37.4876 31.1531 38.4208 30.1567 39.377 29.1832C37.397 26.107 33.9677 24.0767 30.0606 24.0767ZM30.0379 27.7794C25.6649 30.5467 22.9002 34.3847 21.9807 38.293C21.0532 42.2348 21.9551 46.2382 25.0316 49.4922H34.2646C37.2155 46.3727 38.2681 42.4908 37.5453 38.5895C36.8275 34.7157 34.3246 30.8179 30.038 27.7795L30.0379 27.7794Z" fill="white" style="fill:white;fill-opacity:1;"/>
</g>
</g>
<defs>
<filter id="filter0_d_2876_821" x="0" y="0" width="61" height="60" filterUnits="userSpaceOnUse" color-interpolation-filters="sRGB">
<feFlood flood-opacity="0" result="BackgroundImageFix"/>
<feColorMatrix in="SourceAlpha" type="matrix" values="0 0 0 0 0 0 0 0 0 0 0 0 0 0 0 0 0 0 127 0" result="hardAlpha"/>
<feOffset/>
<feGaussianBlur stdDeviation="5"/>
<feComposite in2="hardAlpha" operator="out"/>
<feColorMatrix type="matrix" values="0 0 0 0 1 0 0 0 0 1 0 0 0 0 1 0 0 0 0.25 0"/>
<feBlend mode="normal" in2="BackgroundImageFix" result="effect1_dropShadow_2876_821"/>
<feBlend mode="normal" in="SourceGraphic" in2="effect1_dropShadow_2876_821" result="shape"/>
</filter>
<filter id="filter1_d_2876_821" x="0.536865" y="0.52124" width="59.8696" height="58.9709" filterUnits="userSpaceOnUse" color-interpolation-filters="sRGB">
<feFlood flood-opacity="0" result="BackgroundImageFix"/>
<feColorMatrix in="SourceAlpha" type="matrix" values="0 0 0 0 0 0 0 0 0 0 0 0 0 0 0 0 0 0 127 0" result="hardAlpha"/>
<feOffset/>
<feGaussianBlur stdDeviation="5"/>
<feComposite in2="hardAlpha" operator="out"/>
<feColorMatrix type="matrix" values="0 0 0 0 1 0 0 0 0 1 0 0 0 0 1 0 0 0 0.25 0"/>
<feBlend mode="normal" in2="BackgroundImageFix" result="effect1_dropShadow_2876_821"/>
<feBlend mode="normal" in="SourceGraphic" in2="effect1_dropShadow_2876_821" result="shape"/>
</filter>
<clipPath id="clip0_2876_821">
<rect width="41" height="40" fill="white" style="fill:white;fill-opacity:1;" transform="translate(10 10)"/>
</clipPath>
</defs>
</svg>
