<svg width="41" height="40" viewBox="0 0 41 40" fill="none" xmlns="http://www.w3.org/2000/svg">
<g clip-path="url(#clip0_2876_819)">
<path d="M20.3737 0.52124C17.183 3.20992 15.1141 6.34997 13.7679 9.90144C14.4923 10.9733 15.1759 12.0828 15.822 13.2108C17.1481 12.7346 18.5746 12.4745 20.0606 12.4745C21.577 12.4745 23.0318 12.7451 24.381 13.2402C25.15 11.9951 25.9624 10.7659 26.8303 9.58221C25.4962 6.28061 23.4895 3.2347 20.3737 0.52124ZM35.6029 3.28975C31.6402 5.73354 28.5377 9.67704 25.8856 13.9075C27.7452 14.8826 29.3359 16.3103 30.5177 18.0442C32.4856 16.1137 34.6046 14.2162 36.9254 12.3146C36.8507 9.57458 36.4339 6.56674 35.6029 3.28975ZM5.6727 3.38356C4.87279 6.63851 4.44905 9.61693 4.33825 12.3244C6.34077 14.046 8.19179 15.7891 9.91513 17.6067C11.0826 16.0384 12.5954 14.7474 14.3402 13.8532C11.9378 9.71631 9.04375 5.89852 5.6727 3.38356ZM1.04451 11.6753C-0.419228 20.9399 1.41093 27.7847 4.88483 32.3594C6.78621 34.8632 9.18915 36.6999 11.8477 37.8784C10.0765 34.7971 9.64569 31.295 10.4392 27.9221C10.835 26.24 11.5285 24.5896 12.4972 23.0268C9.26367 18.9015 5.53815 15.3087 1.04443 11.6754L1.04451 11.6753ZM40.2631 11.7151C35.1873 15.6524 31.0722 19.4908 27.4307 23.6009C28.2467 25.1224 28.8075 26.7015 29.1027 28.294C29.703 31.5335 29.1885 34.8223 27.5504 37.7198C30.2803 36.4976 32.8072 34.6339 34.8848 32.1279C38.6982 27.5284 41.0224 20.7514 40.2633 11.7152L40.2631 11.7151ZM20.0606 14.0767C16.3226 14.0767 13.0217 15.9346 11.0091 18.7889C11.8474 19.7186 12.6571 20.6743 13.4372 21.6545C15.0099 19.561 17.1017 17.669 19.6577 16.1305L20.0877 15.8716L20.5037 16.1533C23.0795 17.8979 25.1135 19.9539 26.5782 22.1715C27.4876 21.1531 28.4208 20.1567 29.377 19.1832C27.397 16.107 23.9677 14.0767 20.0606 14.0767ZM20.0379 17.7794C15.6649 20.5467 12.9002 24.3847 11.9807 28.293C11.0532 32.2348 11.9551 36.2382 15.0316 39.4922H24.2646C27.2155 36.3727 28.2681 32.4908 27.5453 28.5895C26.8275 24.7157 24.3246 20.8179 20.038 17.7795L20.0379 17.7794Z" fill="white" fill-opacity="0.5" style="fill:white;fill-opacity:0.5;"/>
</g>
<defs>
<clipPath id="clip0_2876_819">
<rect width="40.9756" height="40" fill="white" style="fill:white;fill-opacity:1;"/>
</clipPath>
</defs>
</svg>
