<svg width="144" height="152" viewBox="0 0 144 152" fill="none" xmlns="http://www.w3.org/2000/svg">
<g clip-path="url(#clip0_4205_1352)">
<path d="M63.6861 124.332C63.6861 124.332 30.5155 133.375 31.8238 144.804C33.1322 156.233 62.7241 150.923 79.8866 147.267C79.8866 147.267 122.216 153.963 122.601 145.15C122.985 136.338 94.2016 125.14 90.7383 124.563C87.275 123.986 63.6861 124.332 63.6861 124.332Z" fill="#2167A6" style="fill:#2167A6;fill:color(display-p3 0.1303 0.4057 0.6516);fill-opacity:1;"/>
<mask id="mask0_4205_1352" style="mask-type:luminance" maskUnits="userSpaceOnUse" x="31" y="124" width="92" height="28">
<path d="M63.6861 124.332C63.6861 124.332 30.5155 133.375 31.8238 144.804C33.1322 156.233 62.7241 150.923 79.8866 147.267C79.8866 147.267 122.216 153.963 122.601 145.15C122.985 136.338 94.2016 125.14 90.7383 124.563C87.275 123.986 63.6861 124.332 63.6861 124.332Z" fill="white" style="fill:white;fill-opacity:1;"/>
</mask>
<g mask="url(#mask0_4205_1352)">
<path d="M35.5566 177.513C35.4411 177.513 35.3642 177.436 35.3642 177.321L34.4791 65.6101C34.4791 65.4947 34.5561 65.4177 34.6715 65.4177C34.787 65.4177 34.8639 65.4947 34.8639 65.6101L35.749 177.321C35.749 177.397 35.6336 177.513 35.5566 177.513Z" fill="#F2EBEB" style="fill:#F2EBEB;fill:color(display-p3 0.9490 0.9216 0.9216);fill-opacity:1;"/>
<path d="M45.0999 177.513C44.9844 177.513 44.9075 177.436 44.9075 177.32L41.1748 65.6486C41.1748 65.5331 41.2518 65.4562 41.3672 65.4562C41.4827 65.4562 41.5596 65.5331 41.5596 65.6486L45.2923 177.282C45.2923 177.397 45.2153 177.513 45.0999 177.513Z" fill="#F2EBEB" style="fill:#F2EBEB;fill:color(display-p3 0.9490 0.9216 0.9216);fill-opacity:1;"/>
<path d="M53.2193 177.513C53.1039 177.513 53.0269 177.436 53.0269 177.321L48.4092 65.6872C48.4092 65.5717 48.4861 65.4948 48.6016 65.4948C48.717 65.4948 48.794 65.5717 48.794 65.6872L53.4117 177.359C53.4117 177.436 53.3347 177.513 53.2193 177.513Z" fill="#F2EBEB" style="fill:#F2EBEB;fill:color(display-p3 0.9490 0.9216 0.9216);fill-opacity:1;"/>
<path d="M58.3758 177.513C58.2604 177.513 58.1834 177.436 58.1834 177.32L53.0654 65.6486C53.0654 65.5331 53.1424 65.4562 53.2578 65.4562C53.3733 65.4562 53.4502 65.5331 53.4502 65.6101L58.6067 177.282C58.5682 177.436 58.4913 177.513 58.3758 177.513Z" fill="#F2EBEB" style="fill:#F2EBEB;fill:color(display-p3 0.9490 0.9216 0.9216);fill-opacity:1;"/>
<path d="M62.801 177.513C62.6856 177.513 62.6086 177.436 62.6086 177.321L58.876 65.6872C58.876 65.5717 58.9529 65.4948 59.0684 65.4948C59.1838 65.4948 59.2608 65.5717 59.2608 65.6872L62.9934 177.321C62.9934 177.436 62.9165 177.513 62.801 177.513Z" fill="#F2EBEB" style="fill:#F2EBEB;fill:color(display-p3 0.9490 0.9216 0.9216);fill-opacity:1;"/>
<path d="M72.3829 186.325C72.2674 186.325 72.1905 186.248 72.1905 186.133L67.111 65.6872C67.111 65.5717 67.1879 65.4948 67.3034 65.4948C67.4188 65.4948 67.4958 65.5717 67.4958 65.6487C67.4958 65.6487 67.4958 65.6487 67.4958 65.6872L72.5753 186.133C72.5753 186.21 72.4983 186.287 72.3829 186.325Z" fill="#F2EBEB" style="fill:#F2EBEB;fill:color(display-p3 0.9490 0.9216 0.9216);fill-opacity:1;"/>
<path d="M79.271 186.287C79.1556 186.287 79.0786 186.21 79.0786 186.094L80.233 68.1884C80.233 68.0729 80.31 67.996 80.4254 67.996C80.5409 67.996 80.6179 68.0729 80.6179 68.1884L79.4634 186.094C79.4634 186.21 79.3865 186.287 79.271 186.287Z" fill="#F2EBEB" style="fill:#F2EBEB;fill:color(display-p3 0.9490 0.9216 0.9216);fill-opacity:1;"/>
<path d="M88.5834 186.287C88.468 186.287 88.391 186.21 88.391 186.094V68.1884C88.391 68.0729 88.468 67.996 88.5834 67.996C88.6988 67.996 88.7758 68.0729 88.7758 68.1884V186.094C88.7758 186.21 88.6988 186.287 88.5834 186.287Z" fill="#F2EBEB" style="fill:#F2EBEB;fill:color(display-p3 0.9490 0.9216 0.9216);fill-opacity:1;"/>
<path d="M97.4725 186.287C97.357 186.287 97.2801 186.21 97.2801 186.094L96.395 68.1499C96.395 68.0345 96.472 67.9575 96.5874 67.9575C96.7029 67.9575 96.7798 68.0345 96.7798 68.1499L97.6649 186.094C97.6649 186.21 97.5494 186.287 97.4725 186.287Z" fill="#F2EBEB" style="fill:#F2EBEB;fill:color(display-p3 0.9490 0.9216 0.9216);fill-opacity:1;"/>
<path d="M107.016 186.287C106.9 186.287 106.823 186.21 106.823 186.094L103.091 68.1884C103.091 68.0729 103.168 67.996 103.283 67.996C103.399 67.996 103.476 68.0729 103.476 68.1884L107.208 186.094C107.247 186.171 107.131 186.287 107.016 186.287C107.054 186.287 107.054 186.287 107.016 186.287Z" fill="#F2EBEB" style="fill:#F2EBEB;fill:color(display-p3 0.9490 0.9216 0.9216);fill-opacity:1;"/>
<path d="M115.135 186.325C115.02 186.325 114.943 186.248 114.943 186.133L110.325 68.2268C110.325 68.1114 110.402 68.0344 110.518 68.0344C110.633 68.0344 110.71 68.1114 110.71 68.2268L115.328 186.133C115.328 186.21 115.251 186.287 115.135 186.325Z" fill="#F2EBEB" style="fill:#F2EBEB;fill:color(display-p3 0.9490 0.9216 0.9216);fill-opacity:1;"/>
<path d="M120.292 186.325C120.176 186.325 120.099 186.248 120.099 186.133L114.943 68.2268C114.943 68.1114 115.02 68.0344 115.135 68.0344C115.251 68.0344 115.328 68.1114 115.328 68.2268L120.484 186.133C120.484 186.21 120.407 186.287 120.292 186.325Z" fill="#F2EBEB" style="fill:#F2EBEB;fill:color(display-p3 0.9490 0.9216 0.9216);fill-opacity:1;"/>
<path d="M124.717 186.325C124.602 186.325 124.525 186.248 124.525 186.133L120.792 68.2268C120.792 68.1114 120.869 68.0344 120.984 68.0344C121.1 68.0344 121.177 68.1114 121.177 68.2268L124.909 186.133C124.909 186.21 124.833 186.287 124.717 186.325C124.717 186.287 124.717 186.287 124.717 186.325Z" fill="#F2EBEB" style="fill:#F2EBEB;fill:color(display-p3 0.9490 0.9216 0.9216);fill-opacity:1;"/>
<path d="M-4.07896 150.576C-4.1944 150.576 -4.27136 150.499 -4.27136 150.384C-4.27136 150.268 -4.1944 150.191 -4.07896 150.191L147.19 149.537C147.305 149.537 147.382 149.614 147.382 149.73C147.382 149.845 147.305 149.922 147.19 149.922L-4.07896 150.576Z" fill="#F2EBEB" style="fill:#F2EBEB;fill:color(display-p3 0.9490 0.9216 0.9216);fill-opacity:1;"/>
<path d="M-4.04038 145.458C-4.15583 145.458 -4.23279 145.381 -4.23279 145.266C-4.23279 145.15 -4.15583 145.073 -4.04038 145.073L147.152 142.226C147.267 142.226 147.344 142.303 147.344 142.418C147.344 142.534 147.267 142.611 147.152 142.611L-4.04038 145.458Z" fill="#F2EBEB" style="fill:#F2EBEB;fill:color(display-p3 0.9490 0.9216 0.9216);fill-opacity:1;"/>
<path d="M-4.00193 139.917C-4.11737 139.917 -4.19434 139.84 -4.19434 139.725C-4.19434 139.609 -4.11737 139.532 -4.00193 139.532L147.19 135.992C147.305 135.992 147.382 136.069 147.382 136.184C147.382 136.3 147.305 136.377 147.19 136.377L-4.00193 139.917Z" fill="#F2EBEB" style="fill:#F2EBEB;fill:color(display-p3 0.9490 0.9216 0.9216);fill-opacity:1;"/>
<path d="M-4.00193 136.377C-4.11737 136.377 -4.19434 136.3 -4.19434 136.184C-4.19434 136.069 -4.11737 135.992 -4.00193 135.992L147.19 132.067C147.305 132.067 147.382 132.144 147.382 132.259C147.382 132.375 147.305 132.452 147.19 132.452L-4.00193 136.377Z" fill="#F2EBEB" style="fill:#F2EBEB;fill:color(display-p3 0.9490 0.9216 0.9216);fill-opacity:1;"/>
<path d="M-4.00193 131.913C-4.11737 131.913 -4.19434 131.836 -4.19434 131.721C-4.19434 131.605 -4.11737 131.528 -4.00193 131.528L147.19 128.681C147.305 128.681 147.382 128.758 147.382 128.873C147.382 128.988 147.305 129.065 147.19 129.065L-4.00193 131.913Z" fill="#F2EBEB" style="fill:#F2EBEB;fill:color(display-p3 0.9490 0.9216 0.9216);fill-opacity:1;"/>
</g>
<path d="M60.5691 135.992C60.5691 135.992 52.9883 129.104 54.5275 128.296C56.0668 127.488 63.7245 130.605 68.1498 130.874C72.5751 131.143 75.0379 130.066 76.3078 131.105C77.5777 132.144 77.924 135.992 77.924 135.992C77.924 135.992 63.7245 136.915 60.5691 135.992Z" fill="#EA8383" style="fill:#EA8383;fill:color(display-p3 0.9176 0.5137 0.5137);fill-opacity:1;"/>
<path d="M79.8865 147.305C79.8865 147.305 106.669 141.687 105.746 140.186C104.822 138.686 103.668 139.032 98.0495 138.686C92.4313 138.339 86.8901 134.26 85.5817 134.26C84.2733 134.26 77.8855 135.992 77.8855 135.992C77.8855 135.992 78.5012 144.996 79.8865 147.305Z" fill="#EA8383" style="fill:#EA8383;fill:color(display-p3 0.9176 0.5137 0.5137);fill-opacity:1;"/>
<path d="M50.4486 136.377C52.719 136.261 55.0278 136.184 57.3367 136.107C59.6456 136.03 61.9159 136.03 64.2248 135.953C66.5337 135.876 68.8041 135.915 71.1129 135.876H74.5377C75.6922 135.876 76.8466 135.876 77.9625 135.915C76.8081 135.992 75.6922 135.992 74.5377 136.069L71.1129 136.184C68.8425 136.261 66.5337 136.3 64.2248 136.338C61.9159 136.377 59.6456 136.377 57.3367 136.377C55.0278 136.377 52.719 136.415 50.4486 136.377Z" fill="#000001" style="fill:#000001;fill:color(display-p3 0.0000 0.0000 0.0039);fill-opacity:1;"/>
<path d="M88.2369 124.371L86.8901 115.097L65.0329 115.212L63.7245 124.332C63.6861 124.332 83.119 125.833 88.2369 124.371Z" fill="#EA8383" style="fill:#EA8383;fill:color(display-p3 0.9176 0.5137 0.5137);fill-opacity:1;"/>
<path d="M45.1382 120.061C45.1382 120.061 32.2471 132.99 29.9767 132.721C27.7063 132.452 25.7823 130.989 24.1661 130.989C22.5499 130.989 20.241 133.106 21.203 133.76C22.1651 134.414 23.7813 133.067 25.3205 134.222C26.8597 135.376 26.0901 138.147 25.0511 137.993C24.0122 137.839 22.8962 137.839 22.6653 136.377C22.4344 134.914 21.7033 133.375 20.5873 134.068C19.4714 134.76 20.0871 138.301 20.5873 138.801C21.0876 139.301 22.7423 140.032 22.7423 140.032C22.7423 140.032 15.6233 144.419 16.3929 145.15C17.1625 145.882 19.5868 145.15 19.5868 145.15C19.5868 145.15 18.5094 146.959 21.7418 146.112C24.9742 145.266 44.1377 132.99 52.719 123.178C58.0294 117.021 62.5316 110.21 66.1104 102.898L70.2663 81.5028C70.2663 81.5028 66.1104 79.925 45.1382 120.061Z" fill="#EA8383" style="fill:#EA8383;fill:color(display-p3 0.9176 0.5137 0.5137);fill-opacity:1;"/>
<path d="M25.7438 139.994C26.1671 140.34 26.5519 140.648 26.9367 140.956C27.1291 141.11 27.36 141.225 27.5524 141.379C27.7448 141.533 27.9757 141.61 28.245 141.726C27.9757 141.764 27.7063 141.764 27.4369 141.687C27.1676 141.61 26.9367 141.456 26.7058 141.302C26.4749 141.148 26.2825 140.956 26.1286 140.725C25.9747 140.456 25.8207 140.225 25.7438 139.994Z" fill="#000001" style="fill:#000001;fill:color(display-p3 0.0000 0.0000 0.0039);fill-opacity:1;"/>
<path d="M27.1676 141.033L26.0902 141.61L25.0127 142.187C24.2816 142.572 23.5504 142.919 22.8578 143.303C22.1651 143.688 21.434 144.073 20.7413 144.496C20.395 144.689 20.0871 144.958 19.7793 145.227C19.6254 145.343 19.5099 145.497 19.4329 145.689C19.3945 145.882 19.4714 146.074 19.6638 146.189C19.5484 146.151 19.4714 146.074 19.3945 145.997C19.3175 145.92 19.3175 145.805 19.3175 145.689C19.356 145.458 19.4714 145.266 19.6254 145.112C19.8947 144.804 20.2026 144.535 20.5489 144.265C21.2031 143.765 21.9342 143.342 22.6654 142.957C23.3965 142.572 24.1276 142.226 24.8973 141.88C25.6284 141.572 26.398 141.302 27.1676 141.033Z" fill="#000001" style="fill:#000001;fill:color(display-p3 0.0000 0.0000 0.0039);fill-opacity:1;"/>
<path d="M64.9944 115.212C64.9944 115.212 65.2638 113.634 65.4177 111.98C65.5716 110.325 61.5696 105.438 61.2617 102.013C60.9539 98.5884 68.9195 81.7722 70.6126 81.195C72.3058 80.6178 77.0005 78.6937 82.9265 81.0796C88.8526 83.4654 88.5063 93.3935 88.1985 98.0882C87.9676 101.474 87.2364 105.669 87.044 109.132C86.8901 111.826 86.8516 115.097 86.8516 115.097C86.8516 115.097 68.4577 116.867 64.9944 115.212Z" fill="#000001" style="fill:#000001;fill:color(display-p3 0.0000 0.0000 0.0039);fill-opacity:1;"/>
<path d="M68.6502 54.9509C68.6502 54.9509 73.3064 53.9119 76.3848 54.4122C79.4248 54.874 81.4259 56.5671 82.1955 59.6456C83.0036 62.9165 83.3499 64.956 81.5798 67.6112C79.8096 70.2664 77.4238 72.1519 73.2679 70.4203C69.1119 68.6886 67.8036 60.8 65.1869 60.3767C62.5702 59.9534 61.4542 56.5286 62.8395 55.4896C64.2248 54.4507 64.3018 54.1813 68.6502 54.9509Z" fill="#000001" style="fill:#000001;fill:color(display-p3 0.0000 0.0000 0.0039);fill-opacity:1;"/>
<path d="M70.2663 90.0071C69.4967 90.3535 71.0744 88.5833 71.8056 84.6198C72.6906 79.9636 72.4213 76.154 70.6896 75.0765C68.958 73.999 63.3013 70.8821 63.3013 70.8821C63.3013 70.8821 59.5301 71.4978 59.2608 70.8051C58.9914 70.1124 61.6851 66.0719 62.801 63.7246C63.917 61.3773 66.4952 58.3757 66.4952 58.3757C66.3797 58.799 67.1878 61.7236 69.4197 63.6476C70.7666 64.8405 73.7296 65.3408 73.7296 65.3408C73.7296 65.3408 72.1904 61.5697 75.2689 62.4932C78.3473 63.4167 75.2689 67.4573 75.7306 67.996C76.7311 69.1504 77.3084 79.2709 78.3089 80.8102C78.5013 81.0795 73.037 88.7372 70.2663 90.0071Z" fill="#EA8383" style="fill:#EA8383;fill:color(display-p3 0.9176 0.5137 0.5137);fill-opacity:1;"/>
<path d="M65.4177 65.918C65.8795 65.918 66.3413 65.764 66.7646 65.4947C66.957 65.3792 67.1109 65.2253 67.3033 65.0329C67.3803 64.9559 67.4572 64.8405 67.5342 64.7635C67.6111 64.6866 67.6881 64.5711 67.7651 64.4557C67.7651 64.5711 67.7266 64.7251 67.6881 64.8405C67.6496 64.9559 67.5727 65.1099 67.5342 65.2253C67.3803 65.4562 67.2263 65.6486 66.9954 65.841C66.4952 66.1489 65.918 66.1873 65.4177 65.918Z" fill="#000001" style="fill:#000001;fill:color(display-p3 0.0000 0.0000 0.0039);fill-opacity:1;"/>
<path d="M69.4197 66.4183C69.3427 66.3798 69.2658 66.3798 69.2273 66.3798C69.1888 66.3798 69.1503 66.3413 69.1118 66.3028C69.0734 66.2643 69.0349 66.2259 68.9964 66.1874C68.9579 66.1104 68.9194 66.0719 68.9194 65.995C69.0349 65.918 69.2273 65.918 69.3427 65.995C69.4197 66.0335 69.4582 66.1104 69.4582 66.1874C69.4966 66.2643 69.4966 66.3798 69.4197 66.4183Z" fill="#000001" style="fill:#000001;fill:color(display-p3 0.0000 0.0000 0.0039);fill-opacity:1;"/>
<path d="M68.4962 66.88C68.3808 66.8415 68.2269 66.7646 68.1499 66.6876C68.0729 66.5722 68.0345 66.4567 67.996 66.3413C68.0729 66.3028 68.1499 66.2643 68.2653 66.3028C68.3423 66.3413 68.4193 66.3798 68.4577 66.4182C68.5732 66.5722 68.5732 66.7261 68.4962 66.88Z" fill="#000001" style="fill:#000001;fill:color(display-p3 0.0000 0.0000 0.0039);fill-opacity:1;"/>
<path d="M69.0734 70.2279C68.6501 69.997 68.1499 70.074 67.842 70.4588C67.3418 71.0745 69.0734 72.3059 69.9969 71.6132C70.9205 70.9206 69.0734 70.2279 69.0734 70.2279Z" fill="#A04040" style="fill:#A04040;fill:color(display-p3 0.6275 0.2510 0.2510);fill-opacity:1;"/>
<path d="M68.8425 69.2274C69.2658 69.6892 69.3812 70.3818 69.1119 70.9591C68.9964 71.2284 68.7656 71.4978 68.5347 71.6902C68.4192 71.7672 68.2653 71.8441 68.1499 71.9211C67.9959 71.9596 67.8805 72.0365 67.7266 72.0365C67.842 71.9211 67.9574 71.8441 68.0344 71.7287C68.1114 71.6132 68.2268 71.5363 68.3423 71.4208C68.5347 71.2284 68.6501 71.036 68.7655 70.7667C68.881 70.5358 68.9195 70.2664 68.9195 70.0355C68.958 69.7662 68.9195 69.4968 68.8425 69.2274Z" fill="#000001" style="fill:#000001;fill:color(display-p3 0.0000 0.0000 0.0039);fill-opacity:1;"/>
<path d="M83.0035 56.8364C83.5038 56.9134 83.9656 57.0288 84.4273 57.1828C84.6582 57.2597 84.8891 57.4136 85.0815 57.5676C85.3124 57.76 85.4278 58.0293 85.4278 58.3372C85.3509 58.6066 85.2354 58.8759 85.0045 59.0298C84.8121 59.2222 84.6582 59.3762 84.5043 59.5301C84.3504 59.684 84.1964 59.8764 84.0425 60.0688C83.8886 60.2228 83.8116 60.4152 83.7732 60.6076C83.7732 60.8 83.8501 60.9924 84.004 61.1078C84.158 61.2617 84.3504 61.4157 84.5428 61.5696C84.6582 61.6466 84.7737 61.8005 84.8121 61.9159C84.8891 62.0698 84.8506 62.2622 84.7352 62.4162C84.5813 62.6086 84.3504 62.801 84.1195 62.9164C83.9271 63.0319 83.7732 63.1858 83.6192 63.3397C83.5807 63.4167 83.6192 63.4936 83.6577 63.5706C83.7347 63.6476 83.8116 63.7245 83.9271 63.8015C84.2734 64.1093 84.6967 64.4172 85.12 64.6096C84.6582 64.4557 84.1964 64.2248 83.8116 63.9169C83.6962 63.84 83.6192 63.763 83.5038 63.686C83.3883 63.5706 83.3499 63.4167 83.3884 63.2243C83.5038 62.9934 83.6962 62.7625 83.9271 62.6086C84.1195 62.4931 84.2734 62.3392 84.4273 62.1468C84.4658 62.1083 84.5043 62.0314 84.4658 61.9544C84.4273 61.8774 84.3504 61.8005 84.2734 61.762C84.081 61.6081 83.8501 61.4541 83.6962 61.2617C83.5808 61.1463 83.5038 61.0309 83.4653 60.9154C83.3883 60.7615 83.3499 60.6076 83.3884 60.4536C83.4268 60.1843 83.5423 59.9149 83.7347 59.684C83.8886 59.4916 84.0425 59.2992 84.2349 59.1068C84.4273 58.9529 84.6197 58.7605 84.7737 58.6066C84.9276 58.4526 85.043 58.2987 85.12 58.1063C85.1585 57.9139 85.0815 57.683 84.9276 57.5676C84.7737 57.4136 84.5813 57.2982 84.3504 57.1828C83.9271 57.1443 83.4653 56.9903 83.0035 56.8364Z" fill="#2167A6" style="fill:#2167A6;fill:color(display-p3 0.1303 0.4057 0.6516);fill-opacity:1;"/>
<path d="M85.7742 59.992C85.7742 59.992 104.707 64.5327 104.284 72.4598C103.86 80.3869 89.6223 72.1905 84.6198 60.9925C84.6198 60.9925 84.7352 59.6841 85.7742 59.992Z" fill="#000001" style="fill:#000001;fill:color(display-p3 0.0000 0.0000 0.0039);fill-opacity:1;"/>
<path d="M67.9575 63.2628C67.3418 63.2243 66.8416 63.1089 66.3798 63.1089C66.1489 63.1089 65.918 63.1089 65.6871 63.1089C65.4562 63.1089 65.1869 63.1859 64.879 63.1859C64.9945 62.878 65.2254 62.6471 65.5332 62.5317C65.8026 62.3778 66.1489 62.3008 66.4567 62.3393C66.7646 62.3778 67.0724 62.4547 67.3418 62.6086C67.5727 62.7626 67.8036 62.9934 67.9575 63.2628Z" fill="#000001" style="fill:#000001;fill:color(display-p3 0.0000 0.0000 0.0039);fill-opacity:1;"/>
<path d="M84.6197 82.0801C84.6197 82.0801 87.1594 81.9262 106.4 120.061C106.4 120.061 119.291 132.99 121.561 132.721C123.832 132.452 125.756 130.989 127.372 130.989C128.988 130.989 131.297 133.106 130.335 133.76C129.373 134.414 127.757 133.067 126.218 134.222C124.678 135.376 125.448 138.147 126.526 137.993C127.603 137.839 128.68 137.839 128.873 136.377C129.065 134.915 129.835 133.375 130.951 134.068C132.067 134.761 131.451 138.301 130.951 138.801C130.451 139.301 128.796 140.032 128.796 140.032C128.796 140.032 135.915 144.419 135.145 145.15C134.376 145.882 131.951 145.15 131.951 145.15C131.951 145.15 133.029 146.959 129.796 146.112C126.564 145.266 104.822 132.798 97.1645 122.216C89.0065 110.979 84.4273 102.937 84.4273 102.937C84.4273 102.937 79.5402 79.8482 84.6197 82.0801Z" fill="#EA8383" style="fill:#EA8383;fill:color(display-p3 0.9176 0.5137 0.5137);fill-opacity:1;"/>
<path d="M125.833 139.994C125.91 139.955 125.987 139.879 126.064 139.879C126.141 139.879 126.179 139.879 126.256 139.879C126.333 139.917 126.333 139.994 126.333 140.071C126.295 140.263 126.179 140.456 126.025 140.571C125.756 140.802 125.448 141.033 125.14 141.187C124.525 141.495 123.832 141.687 123.101 141.764C123.716 141.418 124.332 141.187 124.948 140.879C125.256 140.725 125.525 140.571 125.794 140.379C125.91 140.302 126.025 140.186 126.102 140.071C126.102 140.032 126.102 140.032 126.102 140.032C126.102 140.032 126.064 139.994 126.025 139.994C125.987 139.955 125.91 139.955 125.833 139.994Z" fill="#000001" style="fill:#000001;fill:color(display-p3 0.0000 0.0000 0.0039);fill-opacity:1;"/>
<path d="M124.371 141.033C125.179 141.302 125.987 141.61 126.756 141.918C127.526 142.226 128.296 142.611 129.065 143.034C129.835 143.419 130.566 143.881 131.259 144.419C131.605 144.689 131.913 144.996 132.182 145.381C132.259 145.497 132.259 145.612 132.259 145.728C132.259 145.843 132.221 145.959 132.144 146.074C131.99 146.228 131.759 146.305 131.567 146.343C131.759 146.266 131.951 146.151 132.067 145.997C132.182 145.843 132.144 145.612 132.028 145.497C131.759 145.189 131.451 144.881 131.105 144.689C130.412 144.227 129.681 143.804 128.911 143.419C128.142 143.034 127.411 142.649 126.641 142.264L125.487 141.687L124.371 141.033Z" fill="#000001" style="fill:#000001;fill:color(display-p3 0.0000 0.0000 0.0039);fill-opacity:1;"/>
<path d="M3.38626 87.9677C3.19385 87.2365 3.00145 86.4669 2.886 85.6973C2.77056 84.9277 2.65512 84.158 2.53967 83.3884C2.53967 83.2345 2.61663 83.119 2.77056 83.0806C2.92448 83.0806 3.03993 83.1575 3.07841 83.3115C3.11689 84.0811 3.15537 84.8507 3.19385 85.6203C3.23233 86.3899 3.30929 87.198 3.38626 87.9677Z" fill="#F2EBEB" style="fill:#F2EBEB;fill:color(display-p3 0.9490 0.9216 0.9216);fill-opacity:1;"/>
<path d="M2.23193 78.7707C2.23193 78.0011 2.23193 77.2314 2.27041 76.4618C2.3089 75.6922 2.30889 74.9226 2.34737 74.153C2.34737 73.9606 2.53978 73.8066 2.73219 73.8066C2.92459 73.8066 3.07851 73.9606 3.07851 74.153V74.1915C3.07851 74.9611 3.07851 75.7307 3.07851 76.5003C3.07851 77.2699 3.04003 78.0395 3.04003 78.8092V78.8477C3.04003 79.0785 2.88611 79.2325 2.65522 79.2325C2.42434 79.2325 2.27041 79.0785 2.27041 78.8477L2.23193 78.7707Z" fill="#F2EBEB" style="fill:#F2EBEB;fill:color(display-p3 0.9490 0.9216 0.9216);fill-opacity:1;"/>
<path d="M2.88604 69.5353C3.03996 68.6502 3.19389 67.7652 3.38629 66.9186C3.38629 67.8036 3.30933 68.6887 3.27085 69.5738C3.27085 69.6892 3.19389 69.7662 3.07844 69.7662C2.963 69.7662 2.84756 69.6892 2.88604 69.5353C2.84756 69.5353 2.84756 69.5353 2.88604 69.5353Z" fill="#F2EBEB" style="fill:#F2EBEB;fill:color(display-p3 0.9490 0.9216 0.9216);fill-opacity:1;"/>
<path d="M9.62024 46.2926C9.62024 45.9078 9.65872 45.523 9.73568 45.1382C9.81265 44.7534 9.88961 44.3686 10.005 44.0223C10.1975 43.2911 10.4668 42.5215 10.7747 41.8288C10.8132 41.7134 10.9671 41.6364 11.121 41.6749C11.2364 41.7134 11.3134 41.8673 11.2749 41.9828C11.2749 41.9828 11.2749 41.9828 11.2749 42.0213C11.121 42.3676 10.9286 42.7139 10.7747 43.0602C10.6207 43.4066 10.4668 43.7529 10.3129 44.0992C10.159 44.4456 10.0435 44.8304 9.92809 45.1767C9.77416 45.5615 9.6972 45.9463 9.62024 46.2926Z" fill="#F2EBEB" style="fill:#F2EBEB;fill:color(display-p3 0.9490 0.9216 0.9216);fill-opacity:1;"/>
<path d="M13.0066 37.7115C13.4298 37.0573 13.8916 36.4416 14.3534 35.8259C14.8152 35.2102 15.3154 34.5945 15.8157 34.0173C15.9696 33.9019 16.239 33.9404 16.3544 34.0943C16.4314 34.2097 16.4698 34.3637 16.3929 34.4791C15.8926 35.0563 15.4309 35.672 14.9691 36.2877C14.5073 36.9034 14.0455 37.5191 13.6222 38.1348C13.4683 38.2502 13.199 38.2502 13.0835 38.0963C13.0066 37.9809 12.9681 37.8269 13.0066 37.7115Z" fill="#F2EBEB" style="fill:#F2EBEB;fill:color(display-p3 0.9490 0.9216 0.9216);fill-opacity:1;"/>
<path d="M18.9712 30.6309C20.1256 29.5919 21.28 28.5914 22.4729 27.5909C22.5114 27.5524 22.5499 27.5524 22.5884 27.5909C22.6269 27.6294 22.6269 27.6678 22.5884 27.6678C21.5494 28.8223 20.4719 29.8997 19.3945 30.9772C19.279 31.0926 19.0866 31.0926 18.9712 30.9772C18.8942 30.9002 18.8942 30.7078 18.9712 30.6309Z" fill="#F2EBEB" style="fill:#F2EBEB;fill:color(display-p3 0.9490 0.9216 0.9216);fill-opacity:1;"/>
<path d="M33.9017 17.6628C34.4405 17.1241 35.0562 16.6238 35.6334 16.1236C36.2106 15.6233 36.8263 15.1616 37.4805 14.6998C37.5574 14.6228 37.7114 14.6613 37.7883 14.7383C37.8653 14.8152 37.8268 14.9692 37.7498 15.0461C37.0957 15.4694 36.4415 15.8927 35.8258 16.316C35.2101 16.7393 34.5174 17.2011 33.9017 17.6628Z" fill="#F2EBEB" style="fill:#F2EBEB;fill:color(display-p3 0.9490 0.9216 0.9216);fill-opacity:1;"/>
<path d="M41.3285 12.1601C42.6754 11.3904 44.0222 10.6208 45.446 9.96664C45.6384 9.92816 45.8693 10.0436 45.9078 10.2745C45.9463 10.4284 45.8693 10.5823 45.7538 10.6593C44.3685 11.3135 42.9832 11.9677 41.6749 12.6988C41.5209 12.7758 41.3285 12.7373 41.2516 12.5833C41.1361 12.4679 41.1746 12.237 41.3285 12.1601Z" fill="#F2EBEB" style="fill:#F2EBEB;fill:color(display-p3 0.9490 0.9216 0.9216);fill-opacity:1;"/>
<path d="M49.756 8.27349C51.2183 7.77324 52.719 7.38843 54.2583 7.08058C54.4122 7.0421 54.6046 7.15754 54.6431 7.31146C54.6815 7.46539 54.5661 7.65779 54.4122 7.69627C52.9499 8.0426 51.4876 8.4659 50.0253 8.96615C49.7945 8.96615 49.6405 8.81222 49.6021 8.61982C49.6021 8.46589 49.679 8.35045 49.756 8.27349Z" fill="#F2EBEB" style="fill:#F2EBEB;fill:color(display-p3 0.9490 0.9216 0.9216);fill-opacity:1;"/>
<path d="M58.9144 6.54182C59.6456 6.50334 60.3767 6.54182 61.1078 6.5803C61.839 6.61878 62.5701 6.69574 63.3013 6.81118C62.5701 6.7727 61.839 6.7727 61.1078 6.81118C60.3767 6.84967 59.6456 6.88815 58.9144 6.96511C58.799 6.96511 58.722 6.84967 58.7605 6.73422C58.7605 6.65726 58.799 6.61878 58.9144 6.54182Z" fill="#F2EBEB" style="fill:#F2EBEB;fill:color(display-p3 0.9490 0.9216 0.9216);fill-opacity:1;"/>
<path d="M85.3124 6.84961C86.082 6.88809 86.8516 6.96505 87.6212 7.08049C88.3909 7.19594 89.1605 7.31138 89.9301 7.4653C90.0455 7.50379 90.084 7.61923 90.0455 7.73467C90.0071 7.85011 89.8916 7.92708 89.7762 7.8886C89.045 7.69619 88.2754 7.50378 87.5443 7.34986C86.8131 7.19594 86.0435 6.96505 85.3124 6.84961Z" fill="#F2EBEB" style="fill:#F2EBEB;fill:color(display-p3 0.9490 0.9216 0.9216);fill-opacity:1;"/>
<path d="M94.3939 8.54278C95.8946 9.00456 97.3569 9.50481 98.7807 10.082C98.9731 10.1975 99.0116 10.4284 98.8962 10.6208C98.8192 10.7747 98.6268 10.8516 98.4729 10.8132C97.0491 10.2359 95.6253 9.69722 94.163 9.19696C93.9706 9.15848 93.8936 8.96608 93.9321 8.77367C93.9706 8.58127 94.2399 8.46582 94.3939 8.54278Z" fill="#F2EBEB" style="fill:#F2EBEB;fill:color(display-p3 0.9490 0.9216 0.9216);fill-opacity:1;"/>
<path d="M102.975 12.0446C104.36 12.7758 105.669 13.5454 106.977 14.4304C107.093 14.5074 107.17 14.6998 107.054 14.8152C106.977 14.9307 106.785 15.0076 106.669 14.8922C105.361 14.1226 104.014 13.353 102.629 12.6988C102.436 12.6603 102.283 12.4679 102.321 12.237C102.359 12.0061 102.552 11.8907 102.783 11.9292C102.86 11.9676 102.937 12.0061 102.975 12.0446Z" fill="#F2EBEB" style="fill:#F2EBEB;fill:color(display-p3 0.9490 0.9216 0.9216);fill-opacity:1;"/>
<path d="M110.671 17.2011C111.249 17.7013 111.826 18.24 112.403 18.7403C111.787 18.2785 111.172 17.8552 110.556 17.3935C110.517 17.355 110.479 17.278 110.517 17.2395C110.556 17.1626 110.633 17.1626 110.671 17.2011Z" fill="#F2EBEB" style="fill:#F2EBEB;fill:color(display-p3 0.9490 0.9216 0.9216);fill-opacity:1;"/>
<path d="M124.755 30.0537C125.41 30.477 125.987 30.9773 126.564 31.516C127.141 32.0547 127.68 32.5935 128.18 33.1707C128.296 33.2476 128.334 33.44 128.257 33.5555C128.18 33.6709 127.988 33.7094 127.872 33.6324C127.834 33.594 127.834 33.594 127.795 33.5555C127.565 33.2476 127.334 32.9398 127.064 32.6704C126.795 32.401 126.564 32.0932 126.333 31.7854C125.833 31.1312 125.333 30.554 124.755 30.0537Z" fill="#F2EBEB" style="fill:#F2EBEB;fill:color(display-p3 0.9490 0.9216 0.9216);fill-opacity:1;"/>
<path d="M130.989 36.8648C131.413 37.519 131.797 38.2117 132.144 38.9043C132.49 39.597 132.836 40.2896 133.106 41.0208C133.183 41.2132 133.106 41.4056 132.913 41.4826C132.721 41.5595 132.529 41.4826 132.452 41.2902C132.144 40.5975 131.836 39.9048 131.49 39.2122C131.143 38.5195 130.797 37.8653 130.374 37.2112C130.297 37.0188 130.451 36.7879 130.643 36.7494C130.758 36.7494 130.912 36.7879 130.989 36.8648Z" fill="#F2EBEB" style="fill:#F2EBEB;fill:color(display-p3 0.9490 0.9216 0.9216);fill-opacity:1;"/>
<path d="M134.491 45.4846C134.76 46.6775 134.914 47.8704 134.953 49.1018C134.683 47.9089 134.376 46.7545 134.029 45.6001C133.991 45.4846 134.068 45.3692 134.183 45.3307C134.299 45.2922 134.453 45.3692 134.491 45.4846Z" fill="#F2EBEB" style="fill:#F2EBEB;fill:color(display-p3 0.9490 0.9216 0.9216);fill-opacity:1;"/>
<path d="M141.033 70.5742C141.264 72.1135 141.418 73.6527 141.533 75.1919C141.533 75.3843 141.418 75.5383 141.225 75.5383C141.033 75.5383 140.879 75.4228 140.879 75.2304V75.1919C140.879 73.6912 140.918 72.1519 141.033 70.5742Z" fill="#F2EBEB" style="fill:#F2EBEB;fill:color(display-p3 0.9490 0.9216 0.9216);fill-opacity:1;"/>
<path d="M141.687 79.8096C141.687 80.5792 141.649 81.3489 141.61 82.1185C141.572 82.8881 141.533 83.6577 141.456 84.4273C141.456 84.5428 141.341 84.6197 141.225 84.6197C141.11 84.6197 141.033 84.5428 141.033 84.4273C140.994 83.6577 140.994 82.8881 140.956 82.1185C140.917 81.3489 140.917 80.5792 140.956 79.8096C140.956 79.5787 141.11 79.4248 141.341 79.4248C141.572 79.4248 141.725 79.6172 141.687 79.8096Z" fill="#F2EBEB" style="fill:#F2EBEB;fill:color(display-p3 0.9490 0.9216 0.9216);fill-opacity:1;"/>
<path d="M66.803 6.38789C66.803 6.38789 68.0344 -1.23135 75.3457 0.500295C82.6571 2.23194 82.5802 8.46587 80.6561 11.2365C78.7321 14.0071 75.923 15.354 71.6901 13.6608C67.4571 11.9676 66.5336 8.69675 66.803 6.38789Z" fill="#000001" style="fill:#000001;fill:color(display-p3 0.0000 0.0000 0.0039);fill-opacity:1;"/>
<path d="M23.5888 22.6654C23.5888 22.6654 24.5893 16.6239 29.6303 17.8553C34.6713 19.0867 34.5559 24.0122 33.1321 26.2441C31.7083 28.476 29.7458 29.592 26.8212 28.3221C23.8966 27.0522 22.6652 24.2046 23.5888 22.6654Z" fill="#2167A6" style="fill:#2167A6;fill:color(display-p3 0.1303 0.4057 0.6516);fill-opacity:1;"/>
<path d="M0.346317 54.1044C0.346317 54.1044 1.34682 48.0628 6.38783 49.2942C11.4288 50.5256 11.3134 55.4512 9.92809 57.6831C8.54277 59.915 6.54176 61.0309 3.6172 59.7611C0.692646 58.4912 -0.577228 55.6821 0.346317 54.1044Z" fill="#2167A6" style="fill:#2167A6;fill:color(display-p3 0.1303 0.4057 0.6516);fill-opacity:1;"/>
<path d="M112.711 23.7428C112.711 23.7428 113.711 17.7013 118.752 18.9327C123.793 20.164 123.678 25.0896 122.254 27.3215C120.83 29.5534 118.868 30.6694 115.943 29.3995C113.019 28.1296 111.787 25.3205 112.711 23.7428Z" fill="#2167A6" style="fill:#2167A6;fill:color(display-p3 0.1303 0.4057 0.6516);fill-opacity:1;"/>
<path d="M133.452 57.76C133.452 57.76 134.453 51.7185 139.494 52.9499C144.535 54.1813 144.419 59.1068 142.995 61.3387C141.572 63.5706 139.609 64.6866 136.685 63.4167C133.76 62.1468 132.529 59.3377 133.452 57.76Z" fill="#2167A6" style="fill:#2167A6;fill:color(display-p3 0.1303 0.4057 0.6516);fill-opacity:1;"/>
<path d="M29.2456 85.274C29.2456 85.274 21.1261 84.235 19.1635 80.156C17.201 76.077 19.1635 76.9236 21.3569 79.5403C23.5504 82.157 29.2456 85.274 29.2456 85.274Z" fill="#F2EBEB" style="fill:#F2EBEB;fill:color(display-p3 0.9490 0.9216 0.9216);fill-opacity:1;"/>
<path d="M26.8982 82.7727C26.8982 82.7727 18.163 71.7671 20.7413 70.3433C23.3195 68.9195 26.8982 82.7727 26.8982 82.7727Z" fill="#F2EBEB" style="fill:#F2EBEB;fill:color(display-p3 0.9490 0.9216 0.9216);fill-opacity:1;"/>
<path d="M29.2456 79.3864C29.2456 79.3864 26.1671 71.4978 28.5529 70.8051C30.9387 70.1125 29.2456 79.3864 29.2456 79.3864Z" fill="#F2EBEB" style="fill:#F2EBEB;fill:color(display-p3 0.9490 0.9216 0.9216);fill-opacity:1;"/>
<path d="M31.6313 89.5838C31.0541 89.1605 30.5539 88.6987 30.0921 88.16C29.6303 87.6213 29.2455 86.9671 29.0146 86.3129C28.9376 86.1205 28.8992 85.9281 28.8992 85.7742C28.8992 85.5818 28.8992 85.3894 28.8992 85.197C28.8992 84.8506 28.8992 84.5428 28.8992 84.1965C28.8992 83.5038 28.8607 82.8496 28.8222 82.157C28.7837 80.7716 28.7068 79.4248 28.7068 78.0395C28.7068 76.6542 28.6683 75.2689 28.7452 73.8835C29.0146 75.2689 29.1685 76.6157 29.3225 78.001C29.4764 79.3863 29.5533 80.7716 29.6303 82.157C29.6688 82.8496 29.6688 83.5423 29.6688 84.2349C29.6688 84.5813 29.6303 84.9276 29.6303 85.3124C29.6303 85.5048 29.6303 85.6203 29.6303 85.7742C29.6303 85.9281 29.6688 86.082 29.7073 86.236C29.8612 86.8901 30.1306 87.4673 30.5154 88.0446C30.7847 88.5063 31.208 89.0835 31.6313 89.5838Z" fill="#F2EBEB" style="fill:#F2EBEB;fill:color(display-p3 0.9490 0.9216 0.9216);fill-opacity:1;"/>
<path d="M115.828 110.056C115.828 110.056 122.831 109.171 124.525 105.784C126.218 102.398 124.525 103.091 122.639 105.284C120.753 107.477 115.828 110.056 115.828 110.056Z" fill="#F2EBEB" style="fill:#F2EBEB;fill:color(display-p3 0.9490 0.9216 0.9216);fill-opacity:1;"/>
<path d="M117.829 107.978C117.829 107.978 125.371 98.7808 123.139 97.5879C120.907 96.395 117.829 107.978 117.829 107.978Z" fill="#F2EBEB" style="fill:#F2EBEB;fill:color(display-p3 0.9490 0.9216 0.9216);fill-opacity:1;"/>
<path d="M115.828 105.13C115.828 105.13 118.483 98.5114 116.405 97.9342C114.327 97.357 115.828 105.13 115.828 105.13Z" fill="#F2EBEB" style="fill:#F2EBEB;fill:color(display-p3 0.9490 0.9216 0.9216);fill-opacity:1;"/>
<path d="M113.711 113.673C114.096 113.25 114.443 112.788 114.75 112.288C115.058 111.826 115.289 111.326 115.443 110.787C115.482 110.556 115.52 110.287 115.482 110.017C115.443 109.709 115.443 109.402 115.443 109.132C115.443 108.555 115.443 107.978 115.482 107.401C115.52 106.246 115.597 105.092 115.751 103.937C115.905 102.783 116.059 101.628 116.29 100.474C116.367 101.628 116.367 102.783 116.367 103.976C116.367 105.169 116.328 106.285 116.29 107.439C116.251 108.016 116.251 108.593 116.213 109.171C116.213 109.44 116.213 109.748 116.213 110.017C116.213 110.364 116.174 110.671 116.059 110.979C115.866 111.557 115.52 112.057 115.097 112.519C114.673 112.942 114.212 113.327 113.711 113.673Z" fill="#F2EBEB" style="fill:#F2EBEB;fill:color(display-p3 0.9490 0.9216 0.9216);fill-opacity:1;"/>
<path d="M82.3109 41.1362C82.3109 41.1362 82.2725 32.9398 86.0051 30.4385C89.7378 27.9373 89.199 30.0152 86.8902 32.5165C84.5813 35.0178 82.3109 41.1362 82.3109 41.1362Z" fill="#F2EBEB" style="fill:#F2EBEB;fill:color(display-p3 0.9490 0.9216 0.9216);fill-opacity:1;"/>
<path d="M84.4274 38.481C84.4274 38.481 94.1246 28.3605 95.8947 30.7078C97.6648 33.0552 84.4274 38.481 84.4274 38.481Z" fill="#F2EBEB" style="fill:#F2EBEB;fill:color(display-p3 0.9490 0.9216 0.9216);fill-opacity:1;"/>
<path d="M88.1215 40.3282C88.1215 40.3282 95.5483 36.2107 96.5488 38.4811C97.5493 40.7515 88.1215 40.3282 88.1215 40.3282Z" fill="#F2EBEB" style="fill:#F2EBEB;fill:color(display-p3 0.9490 0.9216 0.9216);fill-opacity:1;"/>
<path d="M78.3473 44.0993C78.6936 43.4836 79.0784 42.9064 79.5402 42.4062C80.002 41.8674 80.5792 41.4057 81.2334 41.0978C81.3873 41.0209 81.5797 40.9439 81.7721 40.9054C81.9645 40.8669 82.1569 40.8284 82.3493 40.8284C82.6572 40.79 83.0035 40.7515 83.3498 40.6745C84.0425 40.5591 84.6967 40.4436 85.3893 40.3282C86.7361 40.0973 88.083 39.8664 89.4683 39.6355C90.8536 39.4046 92.2005 39.2507 93.5858 39.0968C92.2774 39.5201 90.9306 39.9049 89.5837 40.2127C88.2369 40.5206 86.8901 40.8284 85.5432 41.0593C84.8506 41.1748 84.1579 41.2902 83.4653 41.3672C83.1189 41.4057 82.7726 41.4441 82.3878 41.4441C82.1954 41.4441 82.0799 41.4826 81.926 41.4826C81.7721 41.5211 81.6182 41.5596 81.4643 41.5981C80.8486 41.829 80.2713 42.2138 79.8096 42.6371C79.2708 43.0988 78.8091 43.5991 78.3473 44.0993Z" fill="#F2EBEB" style="fill:#F2EBEB;fill:color(display-p3 0.9490 0.9216 0.9216);fill-opacity:1;"/>
</g>
<defs>
<clipPath id="clip0_4205_1352">
<rect width="143.919" height="152" fill="white" style="fill:white;fill-opacity:1;"/>
</clipPath>
</defs>
</svg>
