<svg width="24" height="24" viewBox="0 0 24 24" fill="none" xmlns="http://www.w3.org/2000/svg">
<g clip-path="url(#clip0_2856_934)">
<path d="M0.75 2.94132C0.75 1.18132 2.7225 0.141319 4.175 1.13632L17.2975 10.1288C17.5895 10.329 17.8286 10.5971 17.9942 10.91C18.1598 11.223 18.247 11.5715 18.2482 11.9255C18.2494 12.2796 18.1647 12.6287 18.0013 12.9428C17.8379 13.2569 17.6006 13.5266 17.31 13.7288L4.18625 22.8563C2.7375 23.8651 0.75 22.8251 0.75 21.0601V2.94132ZM23.25 1.68757C23.25 1.43893 23.1512 1.20047 22.9754 1.02466C22.7996 0.848841 22.5611 0.750069 22.3125 0.750069C22.0639 0.750069 21.8254 0.848841 21.6496 1.02466C21.4738 1.20047 21.375 1.43893 21.375 1.68757V22.3126C21.375 22.5612 21.4738 22.7997 21.6496 22.9755C21.8254 23.1513 22.0639 23.2501 22.3125 23.2501C22.5611 23.2501 22.7996 23.1513 22.9754 22.9755C23.1512 22.7997 23.25 22.5612 23.25 22.3126V1.68757Z" fill="white" fill-opacity="0.8" style="fill:white;fill-opacity:0.8;"/>
</g>
<defs>
<clipPath id="clip0_2856_934">
<rect width="24" height="24" fill="white" style="fill:white;fill-opacity:1;"/>
</clipPath>
</defs>
</svg>
