<svg width="24" height="24" viewBox="0 0 24 24" fill="none" xmlns="http://www.w3.org/2000/svg">
<g clip-path="url(#clip0_2856_936)">
<path d="M23.25 21.0587C23.25 22.8187 21.2775 23.8587 19.825 22.8637L6.7025 13.8712C6.41045 13.671 6.17136 13.4029 6.00577 13.09C5.84017 12.777 5.75301 12.4285 5.75178 12.0745C5.75055 11.7204 5.83529 11.3713 5.99871 11.0572C6.16213 10.7431 6.39935 10.4734 6.69 10.2712L19.8137 1.14368C21.2625 0.134932 23.25 1.17493 23.25 2.93993V21.0587ZM0.75 22.3124C0.75 22.5611 0.848772 22.7995 1.02459 22.9753C1.2004 23.1512 1.43886 23.2499 1.6875 23.2499C1.93614 23.2499 2.1746 23.1512 2.35041 22.9753C2.52623 22.7995 2.625 22.5611 2.625 22.3124V1.68743C2.625 1.43879 2.52623 1.20033 2.35041 1.02452C2.1746 0.848701 1.93614 0.749931 1.6875 0.749931C1.43886 0.749931 1.2004 0.848701 1.02459 1.02452C0.848772 1.20033 0.75 1.43879 0.75 1.68743V22.3124Z" fill="white" fill-opacity="0.8" style="fill:white;fill-opacity:0.8;"/>
</g>
<defs>
<clipPath id="clip0_2856_936">
<rect width="24" height="24" fill="white" style="fill:white;fill-opacity:1;" transform="matrix(-1 0 0 -1 24 24)"/>
</clipPath>
</defs>
</svg>
