<svg width="17" height="17" viewBox="0 0 17 17" fill="none" xmlns="http://www.w3.org/2000/svg">
<path d="M15.7954 3.85364L4.344 15.3064C3.60274 16.0484 2.616 16.4571 1.56754 16.4571H0.342857C0.1536 16.4571 0 16.3035 0 16.1142V14.8901C0 13.8415 0.408686 12.8547 1.15063 12.1126L12.6014 0.659904C13.4818 -0.219968 14.915 -0.219968 15.7954 0.659904C16.2219 1.08647 16.4571 1.65362 16.4571 2.25712C16.4571 2.86061 16.2219 3.42708 15.7954 3.85364ZM12.8619 5.81775L10.6382 3.59373L1.63543 12.5975C1.02309 13.2099 0.685714 14.024 0.685714 14.8901V15.7714H1.56754C2.4336 15.7714 3.24754 15.4339 3.8592 14.8215L12.8619 5.81775ZM15.7714 2.25712C15.7714 1.83672 15.6082 1.44239 15.3106 1.14476C14.6976 0.530975 13.6999 0.530975 13.0862 1.14476L11.1223 3.10887L13.3461 5.3329L15.3099 3.36879C15.6075 3.07115 15.7714 2.67682 15.7714 2.25712Z" fill="#171A36" style="fill:#171A36;fill:color(display-p3 0.0902 0.1020 0.2118);fill-opacity:1;"/>
</svg>
