<svg width="45" height="45" viewBox="0 0 45 45" fill="none" xmlns="http://www.w3.org/2000/svg">
<g clip-path="url(#clip0_2884_419)">
<path d="M13 15C13 14.2044 13.3013 13.4413 13.8377 12.8787C14.3741 12.3161 15.1015 12 15.8601 12H15.4923C16.2509 12 16.9783 12.3161 17.5147 12.8787C18.0511 13.4413 18.3524 14.2044 18.3524 15V30C18.3524 30.7956 18.0511 31.5587 17.5147 32.1213C16.9783 32.6839 16.2509 33 15.4923 33H15.8601C15.1015 33 14.3741 32.6839 13.8377 32.1213C13.3013 31.5587 13 30.7956 13 30V15ZM27.6476 15C27.6476 14.2044 27.9489 13.4413 28.4853 12.8787C29.0217 12.3161 29.7491 12 30.5077 12H30.1399C30.8985 12 31.6259 12.3161 32.1623 12.8787C32.6987 13.4413 33 14.2044 33 15V30C33 30.7956 32.6987 31.5587 32.1623 32.1213C31.6259 32.6839 30.8985 33 30.1399 33H30.5077C29.7491 33 29.0217 32.6839 28.4853 32.1213C27.9489 31.5587 27.6476 30.7956 27.6476 30V15Z" stroke="white" style="stroke:white;stroke-opacity:1;" stroke-width="2" stroke-linejoin="round"/>
<circle cx="22.5" cy="22.5" r="21.5" stroke="white" style="stroke:white;stroke-opacity:1;" stroke-width="2"/>
</g>
<defs>
<clipPath id="clip0_2884_419">
<rect width="45" height="45" fill="white" style="fill:white;fill-opacity:1;"/>
</clipPath>
</defs>
</svg>
