<svg width="32" height="32" viewBox="0 0 32 32" fill="none" xmlns="http://www.w3.org/2000/svg">
<circle cx="16" cy="16" r="15.5" stroke="white" style="stroke:white;stroke-opacity:1;"/>
<path d="M22.4058 15.4057H16.4828V9.48278C16.4828 9.33998 16.4261 9.20302 16.3251 9.10204C16.2242 9.00107 16.0872 8.94434 15.9444 8.94434C15.8016 8.94434 15.6646 9.00107 15.5636 9.10204C15.4627 9.20302 15.4059 9.33998 15.4059 9.48278V15.4057H9.48301C9.34021 15.4057 9.20325 15.4624 9.10227 15.5634C9.0013 15.6644 8.94457 15.8014 8.94457 15.9442C8.94191 16.0141 8.95428 16.0839 8.98086 16.1487C9.00743 16.2135 9.04758 16.2718 9.0986 16.3198C9.14963 16.3677 9.21034 16.4042 9.27665 16.4267C9.34297 16.4492 9.41333 16.4573 9.48301 16.4503H15.4059V22.4055C15.4059 22.5483 15.4627 22.6853 15.5636 22.7863C15.6646 22.8873 15.8016 22.944 15.9444 22.944C16.0872 22.944 16.2242 22.8873 16.3251 22.7863C16.4261 22.6853 16.4828 22.5483 16.4828 22.4055V16.4826H22.4058C22.5486 16.4826 22.6855 16.4259 22.7865 16.3249C22.8875 16.2239 22.9442 16.087 22.9442 15.9442C22.9442 15.8014 22.8875 15.6644 22.7865 15.5634C22.6855 15.4624 22.5486 15.4057 22.4058 15.4057Z" fill="white" style="fill:white;fill-opacity:1;"/>
</svg>
