<svg width="39" height="40" viewBox="0 0 39 40" fill="none" xmlns="http://www.w3.org/2000/svg">
<g clip-path="url(#clip0_2876_835)">
<path fill-rule="evenodd" clip-rule="evenodd" d="M10.9424 9.28578C10.9424 7.0125 11.8353 4.83232 13.4247 3.22487C15.014 1.61741 17.1696 0.714355 19.4173 0.714355C21.665 0.714355 23.8206 1.61741 25.4099 3.22487C26.9993 4.83232 27.8921 7.0125 27.8921 9.28578C27.8921 11.5591 26.9993 13.7392 25.4099 15.3467C23.8206 16.9542 21.665 17.8572 19.4173 17.8572C17.1696 17.8572 15.014 16.9542 13.4247 15.3467C11.8353 13.7392 10.9424 11.5591 10.9424 9.28578ZM10.9424 22.1429C8.13285 22.1429 5.43834 23.2718 3.45166 25.2811C1.46498 27.2904 0.348877 30.0156 0.348877 32.8572C0.348877 34.5622 1.01854 36.1973 2.21055 37.4029C3.40255 38.6085 5.01926 39.2858 6.70501 39.2858H32.1296C33.8153 39.2858 35.432 38.6085 36.624 37.4029C37.816 36.1973 38.4857 34.5622 38.4857 32.8572C38.4857 30.0156 37.3696 27.2904 35.3829 25.2811C33.3962 23.2718 30.7017 22.1429 27.8921 22.1429H10.9424Z" fill="white" fill-opacity="0.5" style="fill:white;fill-opacity:0.5;"/>
</g>
<defs>
<clipPath id="clip0_2876_835">
<rect width="38.8571" height="40" fill="white" style="fill:white;fill-opacity:1;"/>
</clipPath>
</defs>
</svg>
