<svg width="355" height="355" viewBox="0 0 355 355" fill="none" xmlns="http://www.w3.org/2000/svg">
<path d="M337.242 177.5C337.242 265.723 265.723 337.242 177.5 337.242C89.2766 337.242 17.7577 265.723 17.7577 177.5C17.7577 89.2767 89.2766 17.7578 177.5 17.7578C265.723 17.7578 337.242 89.2767 337.242 177.5ZM49.7061 177.5C49.7061 248.078 106.921 305.293 177.5 305.293C248.078 305.293 305.293 248.078 305.293 177.5C305.293 106.921 248.078 49.7062 177.5 49.7062C106.921 49.7062 49.7061 106.921 49.7061 177.5Z" fill="white" style="fill:white;fill-opacity:1;"/>
<path d="M177.658 33.7323C177.668 24.91 184.846 17.6833 193.623 18.5737C219.086 21.1568 243.638 29.8308 265.164 43.9613C291.155 61.0235 311.602 85.2997 323.997 113.813C336.393 142.326 340.198 173.837 334.947 204.481C330.598 229.86 320.193 253.731 304.714 274.113C299.379 281.139 289.198 281.458 282.74 275.448V275.448C276.282 269.437 276.013 259.379 281.172 252.222C292.508 236.494 300.159 218.332 303.457 199.085C307.659 174.57 304.614 149.361 294.698 126.55C284.781 103.74 268.424 84.3188 247.631 70.669C231.307 59.9529 212.806 53.1595 193.573 50.7211C184.82 49.6115 177.649 42.5546 177.658 33.7323V33.7323Z" fill="#30B9F0" style="fill:#30B9F0;fill:color(display-p3 0.1893 0.7273 0.9424);fill-opacity:1;"/>
</svg>
